<svg width="412" height="413" viewBox="0 0 412 413" fill="none" xmlns="http://www.w3.org/2000/svg">
<mask id="mask0_657_2827" style="mask-type:alpha" maskUnits="userSpaceOnUse" x="2" y="147" width="39" height="39">
<rect x="24.9642" y="147" width="28" height="28" transform="rotate(55.0997 24.9642 147)" fill="#D9D9D9"/>
</mask>
<g mask="url(#mask0_657_2827)">
<path d="M8.20809 161.318C7.84096 160.807 7.71405 160.242 7.82737 159.624C7.94069 159.005 8.26049 158.518 8.78675 158.161L18.3552 151.674C18.8814 151.318 19.4626 151.194 20.0988 151.304C20.7351 151.415 21.2367 151.725 21.6038 152.237L22.9389 154.096L24.8525 152.799C25.3788 152.442 25.96 152.319 26.5962 152.429C27.2324 152.539 27.7341 152.85 28.1012 153.361L32.1063 158.94C32.4734 159.452 32.6003 160.017 32.487 160.635C32.3737 161.253 32.0539 161.741 31.5276 162.097L25.7866 165.989L27.1216 167.849C27.4887 168.36 27.6156 168.925 27.5023 169.543C27.389 170.162 27.0692 170.649 26.5429 171.006L20.8019 174.898C20.2756 175.255 19.6944 175.378 19.0582 175.268C18.422 175.158 17.9203 174.847 17.5532 174.336L13.5482 168.757L17.3755 166.162L16.0405 164.302L12.2131 166.897L8.20809 161.318ZM10.1218 160.021L11.4568 161.88L13.3705 160.583L12.0354 158.723L10.1218 160.021ZM13.9491 157.426L15.2841 159.286L17.1978 157.988L15.8628 156.129L13.9491 157.426ZM17.7765 154.831L19.1115 156.691L21.0252 155.394L19.6902 153.534L17.7765 154.831ZM16.6192 161.145L17.9542 163.005L19.8679 161.708L18.5328 159.848L16.6192 161.145ZM20.4465 158.551L21.7815 160.41L23.6952 159.113L22.3602 157.253L20.4465 158.551ZM24.2739 155.956L25.6089 157.816L27.5226 156.518L26.1876 154.659L24.2739 155.956ZM19.2892 164.865L20.6242 166.724L22.5379 165.427L21.2029 163.567L19.2892 164.865ZM23.1166 162.27L24.4516 164.13L26.3653 162.832L25.0302 160.973L23.1166 162.27ZM26.9439 159.675L28.2789 161.535L30.1926 160.238L28.8576 158.378L26.9439 159.675ZM18.1319 171.179L19.4669 173.038L21.3806 171.741L20.0456 169.881L18.1319 171.179ZM21.9592 168.584L23.2943 170.444L25.2079 169.146L23.8729 167.287L21.9592 168.584Z" fill="#0839A4" fill-opacity="0.3"/>
</g>
<mask id="mask1_657_2827" style="mask-type:alpha" maskUnits="userSpaceOnUse" x="130" y="42" width="39" height="39">
<rect x="152.964" y="42" width="28" height="28" transform="rotate(55.0997 152.964 42)" fill="#D9D9D9"/>
</mask>
<g mask="url(#mask1_657_2827)">
<path d="M136.208 59.0851C135.841 58.5737 135.714 58.0089 135.828 57.3907C135.941 56.7724 136.261 56.2849 136.787 55.9281L146.355 49.4415C146.882 49.0848 147.463 48.9614 148.099 49.0716C148.735 49.1817 149.237 49.4925 149.604 50.0039L150.939 51.8635L152.853 50.5662C153.379 50.2094 153.96 50.0861 154.596 50.1962C155.233 50.3063 155.734 50.6171 156.101 51.1285L160.107 56.7074C160.474 57.2188 160.601 57.7837 160.487 58.4019C160.374 59.0201 160.054 59.5076 159.528 59.8644L153.787 63.7564L155.122 65.616C155.489 66.1274 155.616 66.6923 155.503 67.3105C155.389 67.9287 155.069 68.4162 154.543 68.773L148.802 72.665C148.276 73.0217 147.695 73.1451 147.058 73.0349C146.422 72.9248 145.921 72.614 145.553 72.1026L141.548 66.5237L145.376 63.9291L144.041 62.0694L140.213 64.6641L136.208 59.0851ZM138.122 57.7878L139.457 59.6474L141.371 58.3501L140.036 56.4905L138.122 57.7878ZM141.949 55.1931L143.284 57.0528L145.198 55.7555L143.863 53.8958L141.949 55.1931ZM145.777 52.5985L147.112 54.4581L149.025 53.1608L147.69 51.3012L145.777 52.5985ZM144.619 58.9124L145.954 60.7721L147.868 59.4748L146.533 57.6151L144.619 58.9124ZM148.447 56.3178L149.782 58.1774L151.695 56.8801L150.36 55.0205L148.447 56.3178ZM152.274 53.7231L153.609 55.5828L155.523 54.2855L154.188 52.4258L152.274 53.7231ZM147.289 62.6317L148.624 64.4914L150.538 63.1941L149.203 61.3344L147.289 62.6317ZM151.117 60.0371L152.452 61.8967L154.366 60.5994L153.03 58.7398L151.117 60.0371ZM154.944 57.4424L156.279 59.3021L158.193 58.0048L156.858 56.1451L154.944 57.4424ZM146.132 68.9457L147.467 70.8053L149.381 69.508L148.046 67.6484L146.132 68.9457ZM149.959 66.351L151.294 68.2107L153.208 66.9134L151.873 65.0537L149.959 66.351Z" fill="#0839A4" fill-opacity="0.3"/>
</g>
<mask id="mask2_657_2827" style="mask-type:alpha" maskUnits="userSpaceOnUse" x="53" y="313" width="39" height="39">
<rect x="75.9642" y="313" width="28" height="28" transform="rotate(55.0997 75.9642 313)" fill="#D9D9D9"/>
</mask>
<g mask="url(#mask2_657_2827)">
<path d="M59.2081 322.433C58.841 321.922 58.7141 321.357 58.8274 320.739C58.9407 320.121 59.2605 319.633 59.7867 319.276L69.3552 312.79C69.8814 312.433 70.4626 312.31 71.0988 312.42C71.7351 312.53 72.2367 312.841 72.6038 313.352L73.9389 315.212L75.8525 313.914C76.3788 313.558 76.96 313.434 77.5962 313.544C78.2324 313.655 78.7341 313.965 79.1012 314.477L83.1063 320.056C83.4734 320.567 83.6003 321.132 83.487 321.75C83.3737 322.368 83.0539 322.856 82.5276 323.213L76.7866 327.105L78.1216 328.964C78.4887 329.476 78.6156 330.041 78.5023 330.659C78.389 331.277 78.0692 331.765 77.5429 332.121L71.8019 336.013C71.2756 336.37 70.6944 336.493 70.0582 336.383C69.422 336.273 68.9203 335.962 68.5532 335.451L64.5482 329.872L68.3755 327.277L67.0405 325.418L63.2131 328.012L59.2081 322.433ZM61.1218 321.136L62.4568 322.996L64.3705 321.698L63.0354 319.839L61.1218 321.136ZM64.9491 318.541L66.2841 320.401L68.1978 319.104L66.8628 317.244L64.9491 318.541ZM68.7765 315.947L70.1115 317.806L72.0252 316.509L70.6902 314.649L68.7765 315.947ZM67.6192 322.261L68.9542 324.12L70.8679 322.823L69.5328 320.963L67.6192 322.261ZM71.4465 319.666L72.7815 321.526L74.6952 320.228L73.3602 318.369L71.4465 319.666ZM75.2739 317.071L76.6089 318.931L78.5226 317.634L77.1876 315.774L75.2739 317.071ZM70.2892 325.98L71.6242 327.84L73.5379 326.542L72.2029 324.683L70.2892 325.98ZM74.1166 323.385L75.4516 325.245L77.3653 323.948L76.0302 322.088L74.1166 323.385ZM77.9439 320.791L79.2789 322.65L81.1926 321.353L79.8576 319.493L77.9439 320.791ZM69.1319 332.294L70.4669 334.154L72.3806 332.856L71.0456 330.997L69.1319 332.294ZM72.9592 329.699L74.2943 331.559L76.2079 330.262L74.8729 328.402L72.9592 329.699Z" fill="#0839A4" fill-opacity="0.3"/>
</g>
<mask id="mask3_657_2827" style="mask-type:alpha" maskUnits="userSpaceOnUse" x="236" y="323" width="39" height="39">
<rect x="258.964" y="323" width="28" height="28" transform="rotate(55.0997 258.964 323)" fill="#D9D9D9"/>
</mask>
<g mask="url(#mask3_657_2827)">
<path d="M242.208 332.151C241.841 331.64 241.714 331.075 241.828 330.457C241.941 329.838 242.261 329.351 242.787 328.994L252.355 322.507C252.882 322.151 253.463 322.027 254.099 322.137C254.735 322.248 255.237 322.558 255.604 323.07L256.939 324.929L258.853 323.632C259.379 323.275 259.96 323.152 260.596 323.262C261.233 323.372 261.734 323.683 262.101 324.194L266.107 329.773C266.474 330.285 266.601 330.85 266.487 331.468C266.374 332.086 266.054 332.574 265.528 332.93L259.787 336.822L261.122 338.682C261.489 339.193 261.616 339.758 261.503 340.376C261.389 340.995 261.069 341.482 260.543 341.839L254.802 345.731C254.276 346.088 253.695 346.211 253.058 346.101C252.422 345.991 251.921 345.68 251.553 345.169L247.548 339.59L251.376 336.995L250.041 335.135L246.213 337.73L242.208 332.151ZM244.122 330.854L245.457 332.713L247.371 331.416L246.036 329.556L244.122 330.854ZM247.949 328.259L249.284 330.119L251.198 328.821L249.863 326.962L247.949 328.259ZM251.777 325.664L253.112 327.524L255.025 326.227L253.69 324.367L251.777 325.664ZM250.619 331.978L251.954 333.838L253.868 332.541L252.533 330.681L250.619 331.978ZM254.447 329.384L255.782 331.243L257.695 329.946L256.36 328.086L254.447 329.384ZM258.274 326.789L259.609 328.649L261.523 327.351L260.188 325.492L258.274 326.789ZM253.289 335.698L254.624 337.557L256.538 336.26L255.203 334.4L253.289 335.698ZM257.117 333.103L258.452 334.963L260.366 333.665L259.03 331.806L257.117 333.103ZM260.944 330.508L262.279 332.368L264.193 331.071L262.858 329.211L260.944 330.508ZM252.132 342.012L253.467 343.871L255.381 342.574L254.046 340.714L252.132 342.012ZM255.959 339.417L257.294 341.277L259.208 339.979L257.873 338.12L255.959 339.417Z" fill="#0839A4" fill-opacity="0.3"/>
</g>
<mask id="mask4_657_2827" style="mask-type:alpha" maskUnits="userSpaceOnUse" x="272" y="251" width="39" height="39">
<rect x="294.964" y="251" width="28" height="28" transform="rotate(55.0997 294.964 251)" fill="#D9D9D9"/>
</mask>
<g mask="url(#mask4_657_2827)">
<path d="M278.208 262.184C277.841 261.673 277.714 261.108 277.828 260.49C277.941 259.871 278.261 259.384 278.787 259.027L288.355 252.54C288.882 252.184 289.463 252.06 290.099 252.17C290.735 252.281 291.237 252.591 291.604 253.103L292.939 254.962L294.853 253.665C295.379 253.308 295.96 253.185 296.596 253.295C297.233 253.405 297.734 253.716 298.101 254.227L302.107 259.806C302.474 260.318 302.601 260.883 302.487 261.501C302.374 262.119 302.054 262.607 301.528 262.963L295.787 266.855L297.122 268.715C297.489 269.226 297.616 269.791 297.503 270.409C297.389 271.028 297.069 271.515 296.543 271.872L290.802 275.764C290.276 276.121 289.695 276.244 289.058 276.134C288.422 276.024 287.921 275.713 287.553 275.202L283.548 269.623L287.376 267.028L286.041 265.168L282.213 267.763L278.208 262.184ZM280.122 260.887L281.457 262.746L283.371 261.449L282.036 259.589L280.122 260.887ZM283.949 258.292L285.284 260.152L287.198 258.854L285.863 256.995L283.949 258.292ZM287.777 255.697L289.112 257.557L291.025 256.26L289.69 254.4L287.777 255.697ZM286.619 262.011L287.954 263.871L289.868 262.574L288.533 260.714L286.619 262.011ZM290.447 259.417L291.782 261.276L293.695 259.979L292.36 258.119L290.447 259.417ZM294.274 256.822L295.609 258.682L297.523 257.384L296.188 255.525L294.274 256.822ZM289.289 265.731L290.624 267.59L292.538 266.293L291.203 264.433L289.289 265.731ZM293.117 263.136L294.452 264.996L296.366 263.698L295.03 261.839L293.117 263.136ZM296.944 260.541L298.279 262.401L300.193 261.104L298.858 259.244L296.944 260.541ZM288.132 272.045L289.467 273.904L291.381 272.607L290.046 270.747L288.132 272.045ZM291.959 269.45L293.294 271.31L295.208 270.012L293.873 268.153L291.959 269.45Z" fill="#0839A4" fill-opacity="0.3"/>
</g>
<mask id="mask5_657_2827" style="mask-type:alpha" maskUnits="userSpaceOnUse" x="170" y="208" width="40" height="40">
<rect x="187.381" y="208" width="28" height="28" transform="rotate(38.3719 187.381 208)" fill="#D9D9D9"/>
</mask>
<g mask="url(#mask5_657_2827)">
<path d="M173.278 223.089L174.726 221.312C175.305 221.757 175.857 221.941 176.38 221.861C176.904 221.782 177.615 222.088 178.515 222.78C179.414 223.472 179.88 224.072 179.913 224.58C179.946 225.087 180.252 225.564 180.832 226.009C181.411 226.455 181.958 226.635 182.474 226.55C182.99 226.465 183.698 226.768 184.597 227.461C185.466 228.129 185.936 228.732 186.007 229.268C186.078 229.805 186.388 230.285 186.937 230.707C187.516 231.153 188.064 231.333 188.58 231.248C189.095 231.163 189.803 231.466 190.702 232.158C191.602 232.85 192.068 233.45 192.101 233.957C192.134 234.465 192.44 234.941 193.019 235.387L191.571 237.165C190.687 236.484 190.221 235.885 190.172 235.366C190.124 234.846 189.818 234.37 189.254 233.936C188.69 233.502 188.142 233.322 187.611 233.395C187.08 233.468 186.373 233.165 185.488 232.485C184.604 231.804 184.134 231.202 184.078 230.677C184.023 230.152 183.713 229.672 183.149 229.238C182.569 228.792 182.022 228.612 181.506 228.697C180.99 228.782 180.283 228.479 179.383 227.787C178.484 227.095 178.017 226.495 177.984 225.988C177.952 225.48 177.645 225.004 177.066 224.558C176.502 224.124 175.954 223.944 175.423 224.017C174.892 224.091 174.177 223.781 173.278 223.089ZM182.642 223.787C181.773 223.119 181.307 222.519 181.244 221.988C181.18 221.457 180.874 220.981 180.325 220.558C179.792 220.148 179.244 219.967 178.682 220.017C178.121 220.067 177.406 219.758 176.537 219.089L177.985 217.312C178.564 217.758 179.112 217.938 179.628 217.853C180.144 217.768 180.851 218.071 181.751 218.763C181.842 218.833 181.931 218.907 182.016 218.985C182.101 219.063 182.176 219.139 182.24 219.212L183.906 215.433L181.345 216.065L180.81 213.845L194.874 210.784L202.229 222.806L200.208 223.963L198.902 221.729L195.305 229.843C195.422 230.126 195.541 230.398 195.662 230.66C195.783 230.922 195.989 231.164 196.278 231.387L194.83 233.165C193.973 232.482 193.51 231.878 193.44 231.355C193.371 230.831 193.062 230.358 192.513 229.936C191.934 229.49 191.386 229.31 190.87 229.395C190.355 229.48 189.647 229.177 188.748 228.485C187.879 227.816 187.409 227.214 187.337 226.677C187.266 226.14 186.956 225.661 186.408 225.238C185.828 224.793 185.281 224.612 184.765 224.698C184.249 224.783 183.542 224.479 182.642 223.787ZM184.091 222.01C184.548 222.361 184.987 222.53 185.407 222.517C185.828 222.503 186.346 222.636 186.96 222.916L188.577 219.243L192.863 221.059L190.306 226.755C190.802 227.089 191.287 227.24 191.761 227.206C192.235 227.173 192.848 227.41 193.6 227.917L197.446 219.271L193.73 213.375L186.736 214.79L183.715 221.648C183.764 221.71 183.82 221.771 183.882 221.831C183.945 221.891 184.014 221.951 184.091 222.01Z" fill="#EE9F0A" fill-opacity="0.3"/>
</g>
<mask id="mask6_657_2827" style="mask-type:alpha" maskUnits="userSpaceOnUse" x="63" y="71" width="41" height="40">
<rect x="81.3812" y="71" width="28" height="28" transform="rotate(38.3719 81.3812 71)" fill="#D9D9D9"/>
</mask>
<g mask="url(#mask6_657_2827)">
<path d="M67.2776 89.7034L68.7261 87.9257C69.3053 88.3715 69.8567 88.5547 70.3801 88.4754C70.9036 88.3961 71.615 88.7025 72.5144 89.3945C73.4138 90.0866 73.88 90.6863 73.913 91.1937C73.946 91.7011 74.2522 92.1777 74.8314 92.6234C75.4107 93.0692 75.9583 93.2494 76.4741 93.1643C76.9899 93.0792 77.6975 93.3826 78.5969 94.0746C79.4659 94.7432 79.9359 95.3459 80.007 95.8826C80.0781 96.4194 80.388 96.8989 80.9368 97.3211C81.5161 97.7669 82.0637 97.9471 82.5795 97.862C83.0953 97.7769 83.8029 98.0803 84.7023 98.7723C85.6017 99.4644 86.0679 100.064 86.1009 100.572C86.1339 101.079 86.4401 101.556 87.0193 102.001L85.5709 103.779C84.6867 103.099 84.2205 102.499 84.1723 101.98C84.124 101.461 83.8179 100.984 83.2539 100.55C82.6898 100.116 82.1423 99.9357 81.6112 100.009C81.0802 100.083 80.3725 99.7791 79.4884 99.0988C78.6042 98.4185 78.1342 97.8158 78.0783 97.2908C78.0225 96.7658 77.7125 96.2863 77.1485 95.8523C76.5692 95.4066 76.0216 95.2263 75.5058 95.3115C74.99 95.3966 74.2824 95.0932 73.383 94.4011C72.4836 93.7091 72.0174 93.1093 71.9844 92.6019C71.9514 92.0945 71.6452 91.6179 71.066 91.1722C70.5019 90.7382 69.9544 90.5579 69.4233 90.6313C68.8923 90.7048 68.177 90.3955 67.2776 89.7034ZM76.642 90.4013C75.7731 89.7327 75.3069 89.133 75.2434 88.6021C75.1799 88.0713 74.8738 87.5947 74.325 87.1724C73.7914 86.7619 73.2439 86.5816 72.6823 86.6316C72.1208 86.6815 71.4055 86.3722 70.5366 85.7036L71.9851 83.926C72.5643 84.3717 73.1119 84.552 73.6277 84.4668C74.1435 84.3817 74.8511 84.6851 75.7505 85.3772C75.842 85.4475 75.9305 85.5216 76.0159 85.5994C76.1013 85.6772 76.1761 85.7528 76.2403 85.8263L77.9061 82.0468L75.3449 82.679L74.8095 80.4595L88.8736 77.3985L96.2285 89.4204L94.2075 90.5767L92.9023 88.3433L89.3047 96.4569C89.4215 96.7397 89.5406 97.0121 89.6619 97.2741C89.7832 97.5361 89.9887 97.7786 90.2783 98.0015L88.8299 99.7791C87.973 99.0957 87.5099 98.4923 87.4403 97.9688C87.3708 97.4454 87.0617 96.9725 86.5129 96.5503C85.9336 96.1045 85.386 95.9242 84.8702 96.0094C84.3544 96.0945 83.6468 95.7911 82.7474 95.099C81.8785 94.4305 81.4084 93.8278 81.3373 93.2911C81.2662 92.7543 80.9563 92.2748 80.4075 91.8525C79.8282 91.4068 79.2806 91.2265 78.7648 91.3117C78.249 91.3968 77.5414 91.0934 76.642 90.4013ZM78.0904 88.6237C78.5478 88.9755 78.9867 89.1446 79.4072 89.1307C79.8277 89.1168 80.3454 89.2501 80.9603 89.5304L82.5766 85.8573L86.8633 87.6734L84.3054 93.3695C84.8021 93.7035 85.2873 93.8538 85.7608 93.8206C86.2344 93.7873 86.8475 94.024 87.6002 94.5309L91.4456 85.8848L87.73 79.9892L80.7361 81.4044L77.7151 88.2625C77.764 88.3242 77.8197 88.3852 77.8823 88.4454C77.9448 88.5056 78.0142 88.565 78.0904 88.6237Z" fill="#EE9F0A" fill-opacity="0.3"/>
</g>
<mask id="mask7_657_2827" style="mask-type:alpha" maskUnits="userSpaceOnUse" x="124" y="358" width="41" height="40">
<rect x="142.381" y="358" width="28" height="28" transform="rotate(38.3719 142.381 358)" fill="#D9D9D9"/>
</mask>
<g mask="url(#mask7_657_2827)">
<path d="M128.278 368.854L129.726 367.076C130.305 367.522 130.857 367.705 131.38 367.626C131.904 367.547 132.615 367.853 133.514 368.545C134.414 369.237 134.88 369.837 134.913 370.344C134.946 370.852 135.252 371.328 135.831 371.774C136.411 372.22 136.958 372.4 137.474 372.315C137.99 372.23 138.697 372.533 139.597 373.225C140.466 373.894 140.936 374.497 141.007 375.033C141.078 375.57 141.388 376.05 141.937 376.472C142.516 376.917 143.064 377.098 143.579 377.013C144.095 376.927 144.803 377.231 145.702 377.923C146.602 378.615 147.068 379.215 147.101 379.722C147.134 380.23 147.44 380.706 148.019 381.152L146.571 382.93C145.687 382.249 145.221 381.65 145.172 381.13C145.124 380.611 144.818 380.135 144.254 379.701C143.69 379.267 143.142 379.086 142.611 379.16C142.08 379.233 141.373 378.93 140.488 378.249C139.604 377.569 139.134 376.966 139.078 376.441C139.022 375.916 138.713 375.437 138.148 375.003C137.569 374.557 137.022 374.377 136.506 374.462C135.99 374.547 135.282 374.244 134.383 373.552C133.484 372.86 133.017 372.26 132.984 371.753C132.951 371.245 132.645 370.769 132.066 370.323C131.502 369.889 130.954 369.709 130.423 369.782C129.892 369.855 129.177 369.546 128.278 368.854ZM137.642 369.552C136.773 368.883 136.307 368.284 136.243 367.753C136.18 367.222 135.874 366.745 135.325 366.323C134.791 365.913 134.244 365.732 133.682 365.782C133.121 365.832 132.406 365.523 131.537 364.854L132.985 363.077C133.564 363.522 134.112 363.703 134.628 363.617C135.144 363.532 135.851 363.836 136.751 364.528C136.842 364.598 136.93 364.672 137.016 364.75C137.101 364.828 137.176 364.903 137.24 364.977L138.906 361.197L136.345 361.83L135.81 359.61L149.874 356.549L157.229 368.571L155.207 369.727L153.902 367.494L150.305 375.608C150.422 375.89 150.541 376.163 150.662 376.425C150.783 376.687 150.989 376.929 151.278 377.152L149.83 378.93C148.973 378.246 148.51 377.643 148.44 377.119C148.371 376.596 148.062 376.123 147.513 375.701C146.934 375.255 146.386 375.075 145.87 375.16C145.354 375.245 144.647 374.942 143.747 374.25C142.878 373.581 142.408 372.978 142.337 372.442C142.266 371.905 141.956 371.425 141.407 371.003C140.828 370.557 140.281 370.377 139.765 370.462C139.249 370.547 138.541 370.244 137.642 369.552ZM139.09 367.774C139.548 368.126 139.987 368.295 140.407 368.281C140.828 368.267 141.345 368.401 141.96 368.681L143.577 365.008L147.863 366.824L145.305 372.52C145.802 372.854 146.287 373.004 146.761 372.971C147.234 372.938 147.848 373.175 148.6 373.682L152.446 365.035L148.73 359.14L141.736 360.555L138.715 367.413C138.764 367.475 138.82 367.536 138.882 367.596C138.945 367.656 139.014 367.716 139.09 367.774Z" fill="#EE9F0A" fill-opacity="0.3"/>
</g>
<mask id="mask8_657_2827" style="mask-type:alpha" maskUnits="userSpaceOnUse" x="344" y="41" width="40" height="40">
<rect x="361.381" y="41" width="28" height="28" transform="rotate(38.3719 361.381 41)" fill="#D9D9D9"/>
</mask>
<g mask="url(#mask8_657_2827)">
<path d="M347.278 60.8046L348.726 59.0269C349.305 59.4727 349.857 59.6559 350.38 59.5766C350.904 59.4973 351.615 59.8037 352.515 60.4957C353.414 61.1878 353.88 61.7875 353.913 62.2949C353.946 62.8023 354.252 63.2789 354.832 63.7246C355.411 64.1704 355.958 64.3506 356.474 64.2655C356.99 64.1803 357.698 64.4838 358.597 65.1758C359.466 65.8444 359.936 66.4471 360.007 66.9838C360.078 67.5206 360.388 68.0001 360.937 68.4223C361.516 68.8681 362.064 69.0483 362.58 68.9632C363.095 68.878 363.803 69.1815 364.702 69.8735C365.602 70.5656 366.068 71.1653 366.101 71.6727C366.134 72.1801 366.44 72.6567 367.019 73.1024L365.571 74.8801C364.687 74.1998 364.221 73.6001 364.172 73.0809C364.124 72.5618 363.818 72.0852 363.254 71.6512C362.69 71.2172 362.142 71.0369 361.611 71.1104C361.08 71.1838 360.373 70.8803 359.488 70.2C358.604 69.5197 358.134 68.917 358.078 68.392C358.023 67.867 357.713 67.3875 357.149 66.9535C356.569 66.5078 356.022 66.3275 355.506 66.4127C354.99 66.4978 354.283 66.1944 353.383 65.5023C352.484 64.8103 352.017 64.2105 351.984 63.7031C351.952 63.1957 351.645 62.7191 351.066 62.2734C350.502 61.8394 349.954 61.6591 349.423 61.7325C348.892 61.806 348.177 61.4966 347.278 60.8046ZM356.642 61.5025C355.773 60.8339 355.307 60.2342 355.244 59.7033C355.18 59.1725 354.874 58.6959 354.325 58.2736C353.792 57.8631 353.244 57.6828 352.682 57.7328C352.121 57.7827 351.406 57.4734 350.537 56.8048L351.985 55.0272C352.564 55.4729 353.112 55.6532 353.628 55.568C354.144 55.4829 354.851 55.7863 355.751 56.4784C355.842 56.5487 355.931 56.6228 356.016 56.7006C356.101 56.7784 356.176 56.854 356.24 56.9275L357.906 53.148L355.345 53.7802L354.81 51.5607L368.874 48.4997L376.229 60.5216L374.208 61.6779L372.902 59.4445L369.305 67.5581C369.422 67.8409 369.541 68.1133 369.662 68.3753C369.783 68.6373 369.989 68.8798 370.278 69.1027L368.83 70.8803C367.973 70.1969 367.51 69.5935 367.44 69.07C367.371 68.5466 367.062 68.0737 366.513 67.6514C365.934 67.2057 365.386 67.0254 364.87 67.1106C364.355 67.1957 363.647 66.8923 362.748 66.2002C361.879 65.5316 361.409 64.929 361.337 64.3922C361.266 63.8555 360.956 63.376 360.408 62.9537C359.828 62.508 359.281 62.3277 358.765 62.4129C358.249 62.498 357.542 62.1946 356.642 61.5025ZM358.091 59.7249C358.548 60.0767 358.987 60.2458 359.407 60.2319C359.828 60.218 360.346 60.3513 360.96 60.6316L362.577 56.9585L366.863 58.7746L364.306 64.4707C364.802 64.8047 365.287 64.955 365.761 64.9217C366.235 64.8885 366.848 65.1252 367.6 65.6321L371.446 56.986L367.73 51.0904L360.736 52.5056L357.715 59.3637C357.764 59.4254 357.82 59.4864 357.882 59.5466C357.945 59.6068 358.014 59.6662 358.091 59.7249Z" fill="#EE9F0A" fill-opacity="0.3"/>
</g>
<mask id="mask9_657_2827" style="mask-type:alpha" maskUnits="userSpaceOnUse" x="315" y="105" width="40" height="40">
<rect x="332.381" y="105" width="28" height="28" transform="rotate(38.3719 332.381 105)" fill="#D9D9D9"/>
</mask>
<g mask="url(#mask9_657_2827)">
<path d="M318.278 122.997L319.726 121.22C320.305 121.666 320.857 121.849 321.38 121.769C321.904 121.69 322.615 121.997 323.515 122.689C324.414 123.381 324.88 123.98 324.913 124.488C324.946 124.995 325.252 125.472 325.832 125.917C326.411 126.363 326.958 126.544 327.474 126.458C327.99 126.373 328.698 126.677 329.597 127.369C330.466 128.037 330.936 128.64 331.007 129.177C331.078 129.713 331.388 130.193 331.937 130.615C332.516 131.061 333.064 131.241 333.58 131.156C334.095 131.071 334.803 131.374 335.702 132.066C336.602 132.758 337.068 133.358 337.101 133.866C337.134 134.373 337.44 134.85 338.019 135.295L336.571 137.073C335.687 136.393 335.221 135.793 335.172 135.274C335.124 134.755 334.818 134.278 334.254 133.844C333.69 133.41 333.142 133.23 332.611 133.303C332.08 133.377 331.373 133.073 330.488 132.393C329.604 131.713 329.134 131.11 329.078 130.585C329.023 130.06 328.713 129.58 328.149 129.146C327.569 128.701 327.022 128.52 326.506 128.606C325.99 128.691 325.283 128.387 324.383 127.695C323.484 127.003 323.017 126.403 322.984 125.896C322.952 125.389 322.645 124.912 322.066 124.466C321.502 124.032 320.954 123.852 320.423 123.925C319.892 123.999 319.177 123.69 318.278 122.997ZM327.642 123.695C326.773 123.027 326.307 122.427 326.244 121.896C326.18 121.365 325.874 120.889 325.325 120.467C324.792 120.056 324.244 119.876 323.682 119.926C323.121 119.976 322.406 119.666 321.537 118.998L322.985 117.22C323.564 117.666 324.112 117.846 324.628 117.761C325.144 117.676 325.851 117.979 326.751 118.671C326.842 118.742 326.931 118.816 327.016 118.893C327.101 118.971 327.176 119.047 327.24 119.12L328.906 115.341L326.345 115.973L325.81 113.754L339.874 110.693L347.229 122.714L345.208 123.871L343.902 121.637L340.305 129.751C340.422 130.034 340.541 130.306 340.662 130.568C340.783 130.83 340.989 131.073 341.278 131.296L339.83 133.073C338.973 132.39 338.51 131.786 338.44 131.263C338.371 130.739 338.062 130.267 337.513 129.844C336.934 129.399 336.386 129.218 335.87 129.303C335.355 129.389 334.647 129.085 333.748 128.393C332.879 127.725 332.409 127.122 332.337 126.585C332.266 126.048 331.956 125.569 331.408 125.147C330.828 124.701 330.281 124.521 329.765 124.606C329.249 124.691 328.542 124.387 327.642 123.695ZM329.091 121.918C329.548 122.27 329.987 122.439 330.407 122.425C330.828 122.411 331.346 122.544 331.96 122.824L333.577 119.151L337.863 120.967L335.306 126.664C335.802 126.998 336.287 127.148 336.761 127.115C337.235 127.081 337.848 127.318 338.6 127.825L342.446 119.179L338.73 113.283L331.736 114.698L328.715 121.557C328.764 121.618 328.82 121.679 328.882 121.739C328.945 121.8 329.014 121.859 329.091 121.918Z" fill="#EE9F0A" fill-opacity="0.3"/>
</g>
<mask id="mask10_657_2827" style="mask-type:alpha" maskUnits="userSpaceOnUse" x="56" y="210" width="39" height="38">
<rect x="69.8221" y="210" width="28" height="28" transform="rotate(27.2543 69.8221 210)" fill="#D9D9D9"/>
</mask>
<g mask="url(#mask10_657_2827)">
<path d="M61.4288 226.82C61.2387 226.725 61.0903 226.592 60.9837 226.422C60.8771 226.251 60.8207 226.069 60.8144 225.875C60.8081 225.68 60.8474 225.493 60.9322 225.312C61.0171 225.131 61.1559 224.983 61.3486 224.867L79.4905 213.543C79.6832 213.427 79.884 213.368 80.0927 213.367C80.3014 213.365 80.4922 213.407 80.6651 213.494C80.838 213.58 80.9842 213.707 81.1039 213.873C81.2236 214.039 81.2908 214.232 81.3055 214.452L82.3508 235.38C82.3655 235.6 82.3218 235.796 82.2196 235.968C82.1175 236.14 81.9832 236.28 81.8166 236.388C81.65 236.496 81.4645 236.557 81.2599 236.572C81.0554 236.586 80.858 236.546 80.6679 236.451L61.4288 226.82ZM64.2864 225.7L79.9473 233.539L79.0623 216.517L64.2864 225.7ZM73.5437 228.692C73.8449 228.598 74.0712 228.409 74.2225 228.123C74.3739 227.837 74.4014 227.548 74.305 227.256C74.2086 226.963 74.0135 226.743 73.7197 226.596C73.4258 226.449 73.1283 226.422 72.8271 226.516C72.5259 226.609 72.2996 226.799 72.1483 227.085C71.9969 227.37 71.9694 227.659 72.0658 227.952C72.1622 228.245 72.3573 228.465 72.6511 228.612C72.945 228.759 73.2425 228.785 73.5437 228.692ZM75.1465 225.668C75.4477 225.575 75.674 225.385 75.8253 225.099L77.4281 222.076C77.5795 221.79 77.607 221.501 77.5106 221.208C77.4142 220.916 77.2191 220.696 76.9252 220.549C76.6314 220.402 76.3339 220.375 76.0327 220.469C75.7315 220.562 75.5052 220.752 75.3538 221.037L73.751 224.061C73.5997 224.347 73.5722 224.636 73.6686 224.928C73.7649 225.221 73.9601 225.441 74.2539 225.588C74.5478 225.735 74.8453 225.762 75.1465 225.668Z" fill="#B52600" fill-opacity="0.3"/>
</g>
<mask id="mask11_657_2827" style="mask-type:alpha" maskUnits="userSpaceOnUse" x="210" y="86" width="38" height="38">
<rect x="222.822" y="86" width="28" height="28" transform="rotate(27.2543 222.822 86)" fill="#D9D9D9"/>
</mask>
<g mask="url(#mask11_657_2827)">
<path d="M214.429 106.152C214.239 106.056 214.09 105.924 213.984 105.753C213.877 105.583 213.821 105.401 213.814 105.206C213.808 105.012 213.847 104.824 213.932 104.644C214.017 104.463 214.156 104.315 214.349 104.199L232.491 92.8752C232.683 92.7591 232.884 92.7002 233.093 92.6984C233.302 92.6966 233.492 92.739 233.665 92.8255C233.838 92.9121 233.984 93.0384 234.104 93.2046C234.224 93.3708 234.291 93.5638 234.306 93.7837L235.351 114.712C235.366 114.932 235.322 115.128 235.22 115.3C235.118 115.472 234.983 115.612 234.817 115.72C234.65 115.828 234.465 115.889 234.26 115.903C234.055 115.918 233.858 115.878 233.668 115.782L214.429 106.152ZM217.287 105.032L232.947 112.871L232.062 95.8491L217.287 105.032ZM226.544 108.024C226.845 107.93 227.071 107.74 227.223 107.455C227.374 107.169 227.402 106.88 227.305 106.587C227.209 106.295 227.014 106.075 226.72 105.928C226.426 105.781 226.128 105.754 225.827 105.848C225.526 105.941 225.3 106.131 225.148 106.416C224.997 106.702 224.97 106.991 225.066 107.284C225.162 107.576 225.357 107.796 225.651 107.943C225.945 108.091 226.243 108.117 226.544 108.024ZM228.147 105C228.448 104.906 228.674 104.717 228.825 104.431L230.428 101.408C230.58 101.122 230.607 100.833 230.511 100.54C230.414 100.248 230.219 100.028 229.925 99.8806C229.632 99.7335 229.334 99.7067 229.033 99.8004C228.732 99.8941 228.505 100.084 228.354 100.369L226.751 103.393C226.6 103.678 226.572 103.968 226.669 104.26C226.765 104.553 226.96 104.773 227.254 104.92C227.548 105.067 227.845 105.094 228.147 105Z" fill="#B52600" fill-opacity="0.3"/>
</g>
<mask id="mask12_657_2827" style="mask-type:alpha" maskUnits="userSpaceOnUse" x="10" y="362" width="39" height="38">
<rect x="23.8221" y="362" width="28" height="28" transform="rotate(27.2543 23.8221 362)" fill="#D9D9D9"/>
</mask>
<g mask="url(#mask12_657_2827)">
<path d="M15.4288 374.359C15.2387 374.264 15.0903 374.131 14.9837 373.961C14.8771 373.79 14.8207 373.608 14.8144 373.413C14.8081 373.219 14.8474 373.031 14.9322 372.851C15.0171 372.67 15.1559 372.522 15.3486 372.406L33.4905 361.082C33.6832 360.966 33.884 360.907 34.0927 360.905C34.3014 360.904 34.4922 360.946 34.6651 361.033C34.838 361.119 34.9842 361.245 35.1039 361.412C35.2236 361.578 35.2908 361.771 35.3055 361.991L36.3508 382.919C36.3655 383.139 36.3218 383.335 36.2196 383.507C36.1175 383.679 35.9832 383.819 35.8166 383.927C35.65 384.035 35.4645 384.096 35.2599 384.11C35.0554 384.125 34.858 384.085 34.6679 383.989L15.4288 374.359ZM18.2864 373.239L33.9473 381.078L33.0623 364.056L18.2864 373.239ZM27.5437 376.231C27.8449 376.137 28.0712 375.947 28.2225 375.662C28.3739 375.376 28.4014 375.087 28.305 374.794C28.2086 374.502 28.0135 374.282 27.7197 374.135C27.4258 373.988 27.1283 373.961 26.8271 374.055C26.5259 374.148 26.2996 374.338 26.1483 374.623C25.9969 374.909 25.9694 375.198 26.0658 375.491C26.1622 375.783 26.3573 376.003 26.6511 376.15C26.945 376.298 27.2425 376.324 27.5437 376.231ZM29.1465 373.207C29.4477 373.113 29.674 372.924 29.8253 372.638L31.4281 369.615C31.5795 369.329 31.607 369.04 31.5106 368.747C31.4142 368.455 31.2191 368.235 30.9252 368.088C30.6314 367.94 30.3339 367.914 30.0327 368.007C29.7315 368.101 29.5052 368.291 29.3538 368.576L27.751 371.6C27.5997 371.885 27.5722 372.175 27.6686 372.467C27.7649 372.76 27.9601 372.98 28.2539 373.127C28.5478 373.274 28.8453 373.301 29.1465 373.207Z" fill="#B52600" fill-opacity="0.3"/>
</g>
<mask id="mask13_657_2827" style="mask-type:alpha" maskUnits="userSpaceOnUse" x="239" y="172" width="38" height="38">
<rect x="251.822" y="172" width="28" height="28" transform="rotate(27.2543 251.822 172)" fill="#D9D9D9"/>
</mask>
<g mask="url(#mask13_657_2827)">
<path d="M243.429 189.723C243.239 189.628 243.09 189.496 242.984 189.325C242.877 189.155 242.821 188.973 242.814 188.778C242.808 188.584 242.847 188.396 242.932 188.215C243.017 188.035 243.156 187.886 243.349 187.77L261.491 176.447C261.683 176.331 261.884 176.272 262.093 176.27C262.302 176.268 262.492 176.311 262.665 176.397C262.838 176.484 262.984 176.61 263.104 176.776C263.224 176.943 263.291 177.136 263.306 177.356L264.351 198.284C264.366 198.504 264.322 198.7 264.22 198.872C264.118 199.044 263.983 199.184 263.817 199.292C263.65 199.399 263.465 199.461 263.26 199.475C263.055 199.49 262.858 199.449 262.668 199.354L243.429 189.723ZM246.287 188.603L261.947 196.443L261.062 179.421L246.287 188.603ZM255.544 191.595C255.845 191.502 256.071 191.312 256.223 191.027C256.374 190.741 256.402 190.452 256.305 190.159C256.209 189.867 256.014 189.647 255.72 189.5C255.426 189.352 255.128 189.326 254.827 189.419C254.526 189.513 254.3 189.703 254.148 189.988C253.997 190.274 253.97 190.563 254.066 190.856C254.162 191.148 254.357 191.368 254.651 191.515C254.945 191.662 255.243 191.689 255.544 191.595ZM257.147 188.572C257.448 188.478 257.674 188.289 257.825 188.003L259.428 184.979C259.58 184.694 259.607 184.405 259.511 184.112C259.414 183.819 259.219 183.599 258.925 183.452C258.632 183.305 258.334 183.279 258.033 183.372C257.732 183.466 257.505 183.655 257.354 183.941L255.751 186.965C255.6 187.25 255.572 187.539 255.669 187.832C255.765 188.125 255.96 188.345 256.254 188.492C256.548 188.639 256.845 188.665 257.147 188.572Z" fill="#B52600" fill-opacity="0.3"/>
</g>
<mask id="mask14_657_2827" style="mask-type:alpha" maskUnits="userSpaceOnUse" x="20" y="36" width="39" height="38">
<rect x="33.8221" y="36" width="28" height="28" transform="rotate(27.2543 33.8221 36)" fill="#D9D9D9"/>
</mask>
<g mask="url(#mask14_657_2827)">
<path d="M25.4288 57.5634C25.2387 57.4682 25.0903 57.3355 24.9837 57.1652C24.8771 56.995 24.8207 56.8126 24.8144 56.6182C24.8081 56.4237 24.8474 56.2362 24.9322 56.0554C25.0171 55.8747 25.1559 55.7264 25.3486 55.6103L43.4905 44.2869C43.6832 44.1709 43.884 44.1119 44.0927 44.1101C44.3014 44.1084 44.4922 44.1507 44.6651 44.2373C44.838 44.3238 44.9842 44.4502 45.1039 44.6163C45.2236 44.7825 45.2908 44.9756 45.3055 45.1955L46.3508 66.1237C46.3655 66.3436 46.3218 66.5395 46.2196 66.7116C46.1175 66.8836 45.9832 67.0236 45.8166 67.1315C45.65 67.2395 45.4645 67.3007 45.2599 67.3152C45.0554 67.3297 44.858 67.2894 44.6679 67.1942L25.4288 57.5634ZM28.2864 56.4433L43.9473 64.2829L43.0623 47.2609L28.2864 56.4433ZM37.5437 59.4354C37.8449 59.3417 38.0712 59.1521 38.2225 58.8665C38.3739 58.581 38.4014 58.2918 38.305 57.9992C38.2086 57.7065 38.0135 57.4866 37.7197 57.3395C37.4258 57.1924 37.1283 57.1657 36.8271 57.2593C36.5259 57.353 36.2996 57.5426 36.1483 57.8282C35.9969 58.1137 35.9694 58.4028 36.0658 58.6955C36.1622 58.9882 36.3573 59.2081 36.6511 59.3552C36.945 59.5023 37.2425 59.529 37.5437 59.4354ZM39.1465 56.4118C39.4477 56.3181 39.674 56.1285 39.8253 55.8429L41.4281 52.8193C41.5795 52.5338 41.607 52.2447 41.5106 51.952C41.4142 51.6593 41.2191 51.4394 40.9252 51.2923C40.6314 51.1452 40.3339 51.1185 40.0327 51.2121C39.7315 51.3058 39.5052 51.4954 39.3538 51.781L37.751 54.8046C37.5997 55.0901 37.5722 55.3793 37.6686 55.6719C37.7649 55.9646 37.9601 56.1845 38.2539 56.3316C38.5478 56.4787 38.8453 56.5054 39.1465 56.4118Z" fill="#B52600" fill-opacity="0.3"/>
</g>
<mask id="mask15_657_2827" style="mask-type:alpha" maskUnits="userSpaceOnUse" x="363" y="251" width="38" height="38">
<rect x="375.822" y="251" width="28" height="28" transform="rotate(27.2543 375.822 251)" fill="#D9D9D9"/>
</mask>
<g mask="url(#mask15_657_2827)">
<path d="M367.429 266.493C367.239 266.398 367.09 266.265 366.984 266.095C366.877 265.924 366.821 265.742 366.814 265.548C366.808 265.353 366.847 265.166 366.932 264.985C367.017 264.804 367.156 264.656 367.349 264.54L385.491 253.216C385.683 253.1 385.884 253.041 386.093 253.04C386.302 253.038 386.492 253.08 386.665 253.167C386.838 253.253 386.984 253.38 387.104 253.546C387.224 253.712 387.291 253.905 387.306 254.125L388.351 275.053C388.366 275.273 388.322 275.469 388.22 275.641C388.118 275.813 387.983 275.953 387.817 276.061C387.65 276.169 387.465 276.23 387.26 276.245C387.055 276.259 386.858 276.219 386.668 276.124L367.429 266.493ZM370.287 265.373L385.947 273.212L385.062 256.19L370.287 265.373ZM379.544 268.365C379.845 268.271 380.071 268.082 380.223 267.796C380.374 267.51 380.402 267.221 380.305 266.929C380.209 266.636 380.014 266.416 379.72 266.269C379.426 266.122 379.128 266.095 378.827 266.189C378.526 266.282 378.3 266.472 378.148 266.758C377.997 267.043 377.97 267.332 378.066 267.625C378.162 267.918 378.357 268.138 378.651 268.285C378.945 268.432 379.243 268.458 379.544 268.365ZM381.147 265.341C381.448 265.248 381.674 265.058 381.825 264.772L383.428 261.749C383.58 261.463 383.607 261.174 383.511 260.881C383.414 260.589 383.219 260.369 382.925 260.222C382.632 260.075 382.334 260.048 382.033 260.142C381.732 260.235 381.505 260.425 381.354 260.71L379.751 263.734C379.6 264.02 379.572 264.309 379.669 264.601C379.765 264.894 379.96 265.114 380.254 265.261C380.548 265.408 380.845 265.435 381.147 265.341Z" fill="#B52600" fill-opacity="0.3"/>
</g>
<mask id="mask16_657_2827" style="mask-type:alpha" maskUnits="userSpaceOnUse" x="134" y="289" width="37" height="37">
<rect x="144.255" y="289" width="28" height="28" transform="rotate(21.484 144.255 289)" fill="#D9D9D9"/>
</mask>
<g mask="url(#mask16_657_2827)">
<path d="M142.847 299.795L144.983 294.521C145.104 294.222 145.309 294.011 145.599 293.888C145.889 293.766 146.188 293.763 146.496 293.881C146.803 293.999 147.02 294.198 147.146 294.48C147.273 294.762 147.275 295.052 147.154 295.351L145.018 300.626C144.897 300.925 144.691 301.136 144.401 301.258C144.111 301.381 143.812 301.383 143.505 301.266C143.197 301.148 142.98 300.948 142.854 300.667C142.728 300.385 142.725 300.094 142.847 299.795ZM149.36 302.287L151.497 297.012C151.618 296.713 151.823 296.502 152.113 296.38C152.403 296.257 152.702 296.255 153.009 296.372C153.317 296.49 153.534 296.69 153.66 296.971C153.786 297.253 153.789 297.544 153.668 297.842L151.531 303.117C151.41 303.416 151.205 303.627 150.915 303.749C150.625 303.872 150.326 303.875 150.018 303.757C149.711 303.639 149.494 303.44 149.368 303.158C149.242 302.876 149.239 302.586 149.36 302.287ZM138.539 304.24C138.231 304.122 138.014 303.922 137.888 303.641C137.762 303.359 137.759 303.069 137.881 302.77C138.002 302.471 138.207 302.26 138.497 302.137C138.787 302.015 139.086 302.012 139.393 302.13L158.934 309.604C159.242 309.721 159.459 309.921 159.585 310.203C159.711 310.485 159.714 310.775 159.593 311.074C159.472 311.373 159.266 311.584 158.976 311.706C158.686 311.829 158.387 311.831 158.08 311.714L138.539 304.24ZM155.874 304.778L158.01 299.503C158.131 299.204 158.337 298.994 158.627 298.871C158.917 298.748 159.215 298.746 159.523 298.864C159.831 298.981 160.048 299.181 160.174 299.463C160.3 299.745 160.302 300.035 160.181 300.334L158.045 305.609C157.924 305.907 157.718 306.118 157.428 306.241C157.138 306.363 156.84 306.366 156.532 306.248C156.225 306.131 156.008 305.931 155.881 305.649C155.755 305.367 155.753 305.077 155.874 304.778ZM163.634 297.999L143.985 290.484C143.714 290.38 143.52 290.2 143.405 289.942C143.29 289.685 143.286 289.424 143.392 289.161L143.627 288.581C143.706 288.387 143.823 288.239 143.98 288.137C144.136 288.034 144.314 287.97 144.512 287.944L155.686 286.979C156.05 286.956 156.404 287.01 156.748 287.141C157.092 287.273 157.389 287.468 157.64 287.726L165.095 295.786C165.258 295.95 165.354 296.139 165.383 296.353C165.411 296.567 165.386 296.771 165.308 296.964L165.147 297.36C165.026 297.658 164.821 297.869 164.531 297.992C164.241 298.114 163.942 298.117 163.634 297.999ZM148.693 289.848L160.744 294.457L155.894 289.251L148.693 289.848Z" fill="#4BC57C" fill-opacity="0.3"/>
</g>
<mask id="mask17_657_2827" style="mask-type:alpha" maskUnits="userSpaceOnUse" x="124" y="133" width="37" height="37">
<rect x="134.255" y="133" width="28" height="28" transform="rotate(21.484 134.255 133)" fill="#D9D9D9"/>
</mask>
<g mask="url(#mask17_657_2827)">
<path d="M132.846 148.2L134.983 142.925C135.104 142.626 135.309 142.416 135.599 142.293C135.889 142.17 136.188 142.168 136.496 142.286C136.803 142.403 137.02 142.603 137.146 142.885C137.273 143.167 137.275 143.457 137.154 143.756L135.018 149.031C134.897 149.329 134.691 149.54 134.401 149.663C134.111 149.785 133.812 149.788 133.505 149.67C133.197 149.553 132.98 149.353 132.854 149.071C132.728 148.789 132.725 148.499 132.846 148.2ZM139.36 150.691L141.496 145.417C141.617 145.118 141.823 144.907 142.113 144.784C142.403 144.662 142.702 144.659 143.009 144.777C143.317 144.895 143.534 145.094 143.66 145.376C143.786 145.658 143.789 145.948 143.668 146.247L141.531 151.522C141.41 151.821 141.205 152.032 140.915 152.154C140.625 152.277 140.326 152.279 140.018 152.162C139.711 152.044 139.494 151.844 139.368 151.562C139.242 151.281 139.239 150.99 139.36 150.691ZM128.539 152.644C128.231 152.527 128.014 152.327 127.888 152.045C127.762 151.764 127.759 151.473 127.88 151.174C128.002 150.875 128.207 150.665 128.497 150.542C128.787 150.419 129.086 150.417 129.393 150.535L148.934 158.008C149.242 158.126 149.459 158.326 149.585 158.608C149.711 158.889 149.714 159.18 149.593 159.479C149.472 159.778 149.266 159.988 148.976 160.111C148.686 160.234 148.387 160.236 148.08 160.118L128.539 152.644ZM145.874 153.183L148.01 147.908C148.131 147.609 148.337 147.398 148.627 147.276C148.917 147.153 149.215 147.151 149.523 147.268C149.831 147.386 150.047 147.586 150.174 147.867C150.3 148.149 150.302 148.44 150.181 148.738L148.045 154.013C147.924 154.312 147.718 154.523 147.428 154.645C147.138 154.768 146.84 154.771 146.532 154.653C146.224 154.535 146.008 154.336 145.881 154.054C145.755 153.772 145.753 153.482 145.874 153.183ZM153.634 146.404L133.985 138.889C133.713 138.785 133.52 138.604 133.405 138.347C133.29 138.09 133.286 137.829 133.392 137.565L133.627 136.985C133.706 136.792 133.823 136.644 133.98 136.541C134.136 136.439 134.314 136.374 134.512 136.349L145.686 135.383C146.05 135.36 146.404 135.415 146.748 135.546C147.092 135.678 147.389 135.872 147.64 136.131L155.095 144.191C155.258 144.355 155.354 144.544 155.383 144.758C155.411 144.972 155.386 145.175 155.307 145.369L155.147 145.764C155.026 146.063 154.821 146.274 154.531 146.397C154.241 146.519 153.942 146.522 153.634 146.404ZM138.693 138.253L150.744 142.862L145.893 137.656L138.693 138.253Z" fill="#4BC57C" fill-opacity="0.3"/>
</g>
<mask id="mask18_657_2827" style="mask-type:alpha" maskUnits="userSpaceOnUse" x="10" y="264" width="37" height="37">
<rect x="20.2548" y="264" width="28" height="28" transform="rotate(21.484 20.2548 264)" fill="#D9D9D9"/>
</mask>
<g mask="url(#mask18_657_2827)">
<path d="M18.8464 275.501L20.9828 270.227C21.1039 269.928 21.3094 269.717 21.5993 269.594C21.8893 269.472 22.1881 269.469 22.4957 269.587C22.8033 269.705 23.0202 269.904 23.1463 270.186C23.2725 270.468 23.2751 270.758 23.154 271.057L21.0176 276.332C20.8965 276.631 20.691 276.842 20.4011 276.964C20.1111 277.087 19.8123 277.089 19.5047 276.972C19.1971 276.854 18.9802 276.654 18.8541 276.372C18.7279 276.091 18.7253 275.8 18.8464 275.501ZM25.36 277.993L27.4964 272.718C27.6175 272.419 27.823 272.208 28.113 272.086C28.403 271.963 28.7017 271.961 29.0093 272.078C29.3169 272.196 29.5338 272.396 29.66 272.677C29.7862 272.959 29.7887 273.249 29.6676 273.548L27.5312 278.823C27.4102 279.122 27.2047 279.333 26.9147 279.455C26.6247 279.578 26.3259 279.581 26.0184 279.463C25.7108 279.345 25.4939 279.146 25.3677 278.864C25.2415 278.582 25.239 278.292 25.36 277.993ZM14.5388 279.946C14.2312 279.828 14.0143 279.628 13.8881 279.347C13.7619 279.065 13.7594 278.774 13.8804 278.476C14.0015 278.177 14.207 277.966 14.497 277.843C14.787 277.721 15.0857 277.718 15.3933 277.836L34.9342 285.31C35.2418 285.427 35.4587 285.627 35.5849 285.909C35.7111 286.191 35.7136 286.481 35.5926 286.78C35.4715 287.079 35.266 287.29 34.976 287.412C34.6861 287.535 34.3873 287.537 34.0797 287.42L14.5388 279.946ZM31.8737 280.484L34.0101 275.209C34.1311 274.91 34.3367 274.7 34.6266 274.577C34.9166 274.454 35.2154 274.452 35.523 274.57C35.8306 274.687 36.0474 274.887 36.1736 275.169C36.2998 275.45 36.3023 275.741 36.1813 276.04L34.0449 281.314C33.9238 281.613 33.7183 281.824 33.4283 281.947C33.1384 282.069 32.8396 282.072 32.532 281.954C32.2244 281.837 32.0075 281.637 31.8813 281.355C31.7552 281.073 31.7526 280.783 31.8737 280.484ZM39.6343 273.705L19.9849 266.19C19.7135 266.086 19.5202 265.905 19.405 265.648C19.2897 265.391 19.2856 265.13 19.3924 264.867L19.6274 264.286C19.7057 264.093 19.8231 263.945 19.9796 263.842C20.1361 263.74 20.3136 263.676 20.512 263.65L31.6855 262.685C32.0501 262.662 32.4043 262.716 32.748 262.847C33.0918 262.979 33.389 263.174 33.6396 263.432L41.0949 271.492C41.2584 271.656 41.3542 271.845 41.3825 272.059C41.4108 272.273 41.3858 272.477 41.3075 272.67L41.1472 273.066C41.0262 273.364 40.8207 273.575 40.5307 273.698C40.2407 273.82 39.9419 273.823 39.6343 273.705ZM24.6933 265.554L36.7436 270.163L31.8935 264.957L24.6933 265.554Z" fill="#4BC57C" fill-opacity="0.3"/>
</g>
<mask id="mask19_657_2827" style="mask-type:alpha" maskUnits="userSpaceOnUse" x="332" y="172" width="37" height="37">
<rect x="342.255" y="172" width="28" height="28" transform="rotate(21.484 342.255 172)" fill="#D9D9D9"/>
</mask>
<g mask="url(#mask19_657_2827)">
<path d="M340.847 186.099L342.983 180.824C343.104 180.525 343.309 180.315 343.599 180.192C343.889 180.069 344.188 180.067 344.496 180.185C344.803 180.302 345.02 180.502 345.146 180.784C345.273 181.065 345.275 181.356 345.154 181.655L343.018 186.93C342.897 187.228 342.691 187.439 342.401 187.562C342.111 187.684 341.812 187.687 341.505 187.569C341.197 187.452 340.98 187.252 340.854 186.97C340.728 186.688 340.725 186.398 340.847 186.099ZM347.36 188.59L349.497 183.316C349.618 183.017 349.823 182.806 350.113 182.683C350.403 182.561 350.702 182.558 351.009 182.676C351.317 182.794 351.534 182.993 351.66 183.275C351.786 183.557 351.789 183.847 351.668 184.146L349.531 189.421C349.41 189.72 349.205 189.93 348.915 190.053C348.625 190.176 348.326 190.178 348.018 190.061C347.711 189.943 347.494 189.743 347.368 189.461C347.242 189.18 347.239 188.889 347.36 188.59ZM336.539 190.543C336.231 190.426 336.014 190.226 335.888 189.944C335.762 189.662 335.759 189.372 335.881 189.073C336.002 188.774 336.207 188.564 336.497 188.441C336.787 188.318 337.086 188.316 337.393 188.433L356.934 195.907C357.242 196.025 357.459 196.225 357.585 196.507C357.711 196.788 357.714 197.079 357.593 197.378C357.472 197.676 357.266 197.887 356.976 198.01C356.686 198.132 356.387 198.135 356.08 198.017L336.539 190.543ZM353.874 191.082L356.01 185.807C356.131 185.508 356.337 185.297 356.627 185.175C356.917 185.052 357.215 185.05 357.523 185.167C357.831 185.285 358.048 185.485 358.174 185.766C358.3 186.048 358.302 186.338 358.181 186.637L356.045 191.912C355.924 192.211 355.718 192.422 355.428 192.544C355.138 192.667 354.84 192.669 354.532 192.552C354.225 192.434 354.008 192.234 353.881 191.953C353.755 191.671 353.753 191.381 353.874 191.082ZM361.634 184.303L341.985 176.787C341.714 176.684 341.52 176.503 341.405 176.246C341.29 175.989 341.286 175.728 341.392 175.464L341.627 174.884C341.706 174.691 341.823 174.543 341.98 174.44C342.136 174.337 342.314 174.273 342.512 174.248L353.686 173.282C354.05 173.259 354.404 173.314 354.748 173.445C355.092 173.577 355.389 173.771 355.64 174.03L363.095 182.09C363.258 182.254 363.354 182.443 363.383 182.657C363.411 182.871 363.386 183.074 363.308 183.268L363.147 183.663C363.026 183.962 362.821 184.173 362.531 184.295C362.241 184.418 361.942 184.421 361.634 184.303ZM346.693 176.152L358.744 180.761L353.894 175.555L346.693 176.152Z" fill="#4BC57C" fill-opacity="0.3"/>
</g>
<mask id="mask20_657_2827" style="mask-type:alpha" maskUnits="userSpaceOnUse" x="339" y="358" width="37" height="37">
<rect x="349.255" y="358" width="28" height="28" transform="rotate(21.484 349.255 358)" fill="#D9D9D9"/>
</mask>
<g mask="url(#mask20_657_2827)">
<path d="M347.847 366.847L349.983 361.572C350.104 361.274 350.309 361.063 350.599 360.94C350.889 360.818 351.188 360.815 351.496 360.933C351.803 361.05 352.02 361.25 352.146 361.532C352.273 361.814 352.275 362.104 352.154 362.403L350.018 367.678C349.897 367.977 349.691 368.187 349.401 368.31C349.111 368.433 348.812 368.435 348.505 368.317C348.197 368.2 347.98 368 347.854 367.718C347.728 367.436 347.725 367.146 347.847 366.847ZM354.36 369.339L356.497 364.064C356.618 363.765 356.823 363.554 357.113 363.431C357.403 363.309 357.702 363.306 358.009 363.424C358.317 363.542 358.534 363.741 358.66 364.023C358.786 364.305 358.789 364.595 358.668 364.894L356.531 370.169C356.41 370.468 356.205 370.679 355.915 370.801C355.625 370.924 355.326 370.926 355.018 370.809C354.711 370.691 354.494 370.491 354.368 370.21C354.242 369.928 354.239 369.637 354.36 369.339ZM343.539 371.292C343.231 371.174 343.014 370.974 342.888 370.692C342.762 370.411 342.759 370.12 342.881 369.821C343.002 369.523 343.207 369.312 343.497 369.189C343.787 369.067 344.086 369.064 344.393 369.182L363.934 376.656C364.242 376.773 364.459 376.973 364.585 377.255C364.711 377.536 364.714 377.827 364.593 378.126C364.472 378.425 364.266 378.635 363.976 378.758C363.686 378.881 363.387 378.883 363.08 378.765L343.539 371.292ZM360.874 371.83L363.01 366.555C363.131 366.256 363.337 366.045 363.627 365.923C363.917 365.8 364.215 365.798 364.523 365.915C364.831 366.033 365.048 366.233 365.174 366.514C365.3 366.796 365.302 367.087 365.181 367.386L363.045 372.66C362.924 372.959 362.718 373.17 362.428 373.293C362.138 373.415 361.84 373.418 361.532 373.3C361.225 373.182 361.008 372.983 360.881 372.701C360.755 372.419 360.753 372.129 360.874 371.83ZM368.634 365.051L348.985 357.536C348.714 357.432 348.52 357.251 348.405 356.994C348.29 356.737 348.286 356.476 348.392 356.212L348.627 355.632C348.706 355.439 348.823 355.291 348.98 355.188C349.136 355.086 349.314 355.022 349.512 354.996L360.686 354.03C361.05 354.007 361.404 354.062 361.748 354.193C362.092 354.325 362.389 354.52 362.64 354.778L370.095 362.838C370.258 363.002 370.354 363.191 370.383 363.405C370.411 363.619 370.386 363.822 370.308 364.016L370.147 364.411C370.026 364.71 369.821 364.921 369.531 365.044C369.241 365.166 368.942 365.169 368.634 365.051ZM353.693 356.9L365.744 361.509L360.894 356.303L353.693 356.9Z" fill="#4BC57C" fill-opacity="0.3"/>
</g>
<mask id="mask21_657_2827" style="mask-type:alpha" maskUnits="userSpaceOnUse" x="252" y="28" width="37" height="37">
<rect x="262.255" y="28" width="28" height="28" transform="rotate(21.484 262.255 28)" fill="#D9D9D9"/>
</mask>
<g mask="url(#mask21_657_2827)">
<path d="M260.847 46.1649L262.983 40.8901C263.104 40.5912 263.309 40.3804 263.599 40.2578C263.889 40.1352 264.188 40.1327 264.496 40.2504C264.803 40.368 265.02 40.5677 265.146 40.8495C265.273 41.1313 265.275 41.4216 265.154 41.7205L263.018 46.9953C262.897 47.2942 262.691 47.505 262.401 47.6276C262.111 47.7502 261.812 47.7527 261.505 47.635C261.197 47.5174 260.98 47.3177 260.854 47.0359C260.728 46.7541 260.725 46.4638 260.847 46.1649ZM267.36 48.6562L269.497 43.3814C269.618 43.0825 269.823 42.8717 270.113 42.7491C270.403 42.6265 270.702 42.624 271.009 42.7417C271.317 42.8593 271.534 43.059 271.66 43.3408C271.786 43.6226 271.789 43.9129 271.668 44.2118L269.531 49.4866C269.41 49.7855 269.205 49.9963 268.915 50.1189C268.625 50.2415 268.326 50.244 268.018 50.1263C267.711 50.0087 267.494 49.809 267.368 49.5272C267.242 49.2454 267.239 48.9551 267.36 48.6562ZM256.539 50.6092C256.231 50.4916 256.014 50.2918 255.888 50.0101C255.762 49.7283 255.759 49.4379 255.881 49.139C256.002 48.8401 256.207 48.6294 256.497 48.5068C256.787 48.3841 257.086 48.3816 257.393 48.4993L276.934 55.9732C277.242 56.0908 277.459 56.2906 277.585 56.5723C277.711 56.8541 277.714 57.1445 277.593 57.4434C277.472 57.7423 277.266 57.953 276.976 58.0757C276.686 58.1983 276.387 58.2008 276.08 58.0831L256.539 50.6092ZM273.874 51.1475L276.01 45.8727C276.131 45.5738 276.337 45.363 276.627 45.2404C276.917 45.1178 277.215 45.1153 277.523 45.233C277.831 45.3506 278.048 45.5503 278.174 45.8321C278.3 46.1139 278.302 46.4042 278.181 46.7031L276.045 51.9779C275.924 52.2768 275.718 52.4876 275.428 52.6102C275.138 52.7328 274.84 52.7353 274.532 52.6176C274.225 52.5 274.008 52.3003 273.881 52.0185C273.755 51.7367 273.753 51.4464 273.874 51.1475ZM281.634 44.3687L261.985 36.8533C261.714 36.7495 261.52 36.5689 261.405 36.3117C261.29 36.0544 261.286 35.7939 261.392 35.5301L261.627 34.9499C261.706 34.7565 261.823 34.6085 261.98 34.5059C262.136 34.4033 262.314 34.3392 262.512 34.3135L273.686 33.3481C274.05 33.3251 274.404 33.3793 274.748 33.5108C275.092 33.6423 275.389 33.8372 275.64 34.0955L283.095 42.1555C283.258 42.3196 283.354 42.5085 283.383 42.7224C283.411 42.9363 283.386 43.14 283.308 43.3334L283.147 43.729C283.026 44.0279 282.821 44.2386 282.531 44.3613C282.241 44.4839 281.942 44.4864 281.634 44.3687ZM266.693 36.2174L278.744 40.8263L273.894 35.6207L266.693 36.2174Z" fill="#4BC57C" fill-opacity="0.3"/>
</g>
</svg>
