<svg xmlns="http://www.w3.org/2000/svg" width="373" height="726" fill="none" viewBox="0 0 373 726"><mask id="a" width="39" height="39" x="108" y="104" maskUnits="userSpaceOnUse" style="mask-type:alpha"><path fill="#d9d9d9" d="m130.964 104 16.02 22.964-22.964 16.02L108 120.02z"/></mask><g mask="url(#a)"><path fill="#0839a4" fill-opacity=".3" d="M114.208 122.802a2.25 2.25 0 0 1-.381-1.744 2.25 2.25 0 0 1 .96-1.505l9.568-6.675a2.25 2.25 0 0 1 1.744-.381 2.25 2.25 0 0 1 1.505.96l1.335 1.913 1.914-1.335a2.24 2.24 0 0 1 1.743-.38 2.25 2.25 0 0 1 1.505.959l4.005 5.741a2.25 2.25 0 0 1 .381 1.744 2.25 2.25 0 0 1-.959 1.505l-5.741 4.005 1.335 1.914q.55.789.38 1.743a2.25 2.25 0 0 1-.959 1.505l-5.741 4.005a2.25 2.25 0 0 1-1.744.381 2.25 2.25 0 0 1-1.505-.959l-4.005-5.741 3.827-2.67-1.335-1.914-3.827 2.67zm1.914-1.335 1.335 1.914 1.913-1.335-1.335-1.914zm3.827-2.67 1.335 1.914 1.914-1.336-1.335-1.913zm3.827-2.67 1.335 1.913 1.914-1.335-1.335-1.913zm-1.157 6.497 1.335 1.914 1.914-1.335-1.335-1.914zm3.827-2.67 1.336 1.914 1.913-1.335-1.335-1.914zm3.828-2.67 1.335 1.914 1.914-1.335-1.335-1.914zm-4.985 9.168 1.335 1.913 1.914-1.335-1.335-1.913zm3.828-2.67 1.335 1.913 1.913-1.335-1.335-1.913zm3.827-2.671 1.335 1.914 1.914-1.335-1.335-1.914zm-8.812 11.838 1.335 1.914 1.914-1.335-1.335-1.914zm3.827-2.67 1.335 1.914 1.914-1.335-1.335-1.914z"/></g><mask id="b" width="40" height="39" x="77" y="4" maskUnits="userSpaceOnUse" style="mask-type:alpha"><path fill="#d9d9d9" d="m100.964 4 16.02 22.964-22.964 16.02L78 20.02z"/></mask><g mask="url(#b)"><path fill="#0839a4" fill-opacity=".3" d="M84.208 22.802a2.25 2.25 0 0 1-.38-1.744 2.25 2.25 0 0 1 .959-1.505l9.568-6.675a2.25 2.25 0 0 1 1.744-.38 2.25 2.25 0 0 1 1.505.959l1.335 1.913 1.913-1.335a2.25 2.25 0 0 1 1.744-.38 2.25 2.25 0 0 1 1.505.96l4.005 5.74q.55.79.381 1.744a2.24 2.24 0 0 1-.96 1.505l-5.741 4.005 1.335 1.914q.551.789.381 1.743a2.25 2.25 0 0 1-.959 1.505l-5.741 4.005a2.25 2.25 0 0 1-1.744.381 2.25 2.25 0 0 1-1.505-.96l-4.005-5.74 3.827-2.67-1.335-1.914-3.827 2.67zm1.914-1.335 1.335 1.914 1.913-1.335-1.335-1.914zm3.827-2.67 1.335 1.913 1.914-1.335-1.335-1.913zm3.827-2.67 1.335 1.914 1.914-1.335-1.335-1.914zm-1.157 6.497 1.335 1.914 1.914-1.335-1.335-1.914zm3.827-2.67 1.335 1.914 1.914-1.335-1.335-1.914zm3.828-2.67 1.335 1.914 1.913-1.335-1.335-1.914zm-4.985 9.168 1.335 1.913 1.914-1.335-1.335-1.914zm3.827-2.67 1.335 1.913 1.914-1.335-1.335-1.913zm3.828-2.67 1.335 1.913 1.913-1.335-1.335-1.914zm-8.812 11.837 1.335 1.914 1.913-1.335-1.335-1.914zm3.827-2.67 1.335 1.914 1.914-1.335-1.335-1.914z"/></g><mask id="c" width="40" height="39" x="28" y="610" maskUnits="userSpaceOnUse" style="mask-type:alpha"><path fill="#d9d9d9" d="m51.964 610 16.02 22.964-22.964 16.02L29 626.02z"/></mask><g mask="url(#c)"><path fill="#0839a4" fill-opacity=".3" d="M35.208 628.802a2.25 2.25 0 0 1-.38-1.744 2.25 2.25 0 0 1 .959-1.505l9.568-6.675a2.25 2.25 0 0 1 1.744-.381 2.25 2.25 0 0 1 1.505.96l1.335 1.913 1.913-1.335a2.24 2.24 0 0 1 1.744-.38 2.25 2.25 0 0 1 1.505.959l4.005 5.741q.55.79.38 1.744a2.25 2.25 0 0 1-.958 1.505l-5.742 4.005 1.335 1.914q.551.789.381 1.743a2.25 2.25 0 0 1-.96 1.505l-5.74 4.005a2.25 2.25 0 0 1-1.744.381 2.25 2.25 0 0 1-1.505-.959l-4.005-5.741 3.827-2.67-1.335-1.914-3.827 2.67zm1.914-1.335 1.335 1.914 1.913-1.335-1.335-1.914zm3.827-2.67 1.335 1.914 1.914-1.336-1.335-1.913zm3.827-2.67 1.335 1.913 1.914-1.335-1.335-1.913zm-1.157 6.497 1.335 1.914 1.914-1.335-1.335-1.914zm3.827-2.67 1.335 1.914 1.914-1.335-1.335-1.914zm3.828-2.67 1.335 1.914 1.913-1.335-1.335-1.914zm-4.985 9.168 1.335 1.913 1.914-1.335-1.335-1.913zm3.827-2.67 1.335 1.913 1.914-1.335-1.335-1.913zm3.828-2.671 1.335 1.914 1.913-1.335-1.335-1.914zm-8.812 11.838 1.335 1.914 1.913-1.335-1.335-1.914zm3.827-2.67 1.335 1.914 1.914-1.335-1.335-1.914z"/></g><mask id="d" width="39" height="39" x="225" y="271" maskUnits="userSpaceOnUse" style="mask-type:alpha"><path fill="#d9d9d9" d="m247.964 271 16.02 22.964-22.964 16.02L225 287.02z"/></mask><g mask="url(#d)"><path fill="#0839a4" fill-opacity=".3" d="M231.208 289.802a2.25 2.25 0 0 1-.381-1.744 2.25 2.25 0 0 1 .96-1.505l9.568-6.675a2.25 2.25 0 0 1 1.744-.381 2.25 2.25 0 0 1 1.505.96l1.335 1.913 1.914-1.335a2.24 2.24 0 0 1 1.743-.38 2.24 2.24 0 0 1 1.505.959l4.005 5.741a2.25 2.25 0 0 1 .381 1.744 2.25 2.25 0 0 1-.959 1.505l-5.741 4.005 1.335 1.914q.55.789.38 1.743a2.25 2.25 0 0 1-.959 1.505l-5.741 4.005a2.25 2.25 0 0 1-1.744.381 2.25 2.25 0 0 1-1.505-.959l-4.005-5.741 3.828-2.67-1.335-1.914-3.828 2.67zm1.914-1.335 1.335 1.914 1.914-1.335-1.335-1.914zm3.827-2.67 1.335 1.914 1.914-1.336-1.335-1.913zm3.828-2.67 1.335 1.913 1.913-1.335-1.335-1.913zm-1.158 6.497 1.335 1.914 1.914-1.335-1.335-1.914zm3.828-2.67 1.335 1.914 1.913-1.335-1.335-1.914zm3.827-2.67 1.335 1.914 1.914-1.335-1.335-1.914zm-4.985 9.168 1.335 1.913 1.914-1.335-1.335-1.913zm3.828-2.67 1.335 1.913 1.913-1.335-1.335-1.913zm3.827-2.671 1.335 1.914 1.914-1.335-1.335-1.914zm-8.812 11.838 1.335 1.914 1.914-1.335-1.335-1.914zm3.827-2.67 1.335 1.914 1.914-1.335-1.335-1.914z"/></g><mask id="e" width="39" height="39" x="36" y="311" maskUnits="userSpaceOnUse" style="mask-type:alpha"><path fill="#d9d9d9" d="m58.964 311 16.02 22.964-22.964 16.02L36 327.02z"/></mask><g mask="url(#e)"><path fill="#0839a4" fill-opacity=".3" d="M42.208 329.802a2.25 2.25 0 0 1-.38-1.744 2.25 2.25 0 0 1 .959-1.505l9.568-6.675a2.25 2.25 0 0 1 1.744-.381 2.25 2.25 0 0 1 1.505.96l1.335 1.913 1.913-1.335a2.24 2.24 0 0 1 1.744-.38 2.25 2.25 0 0 1 1.505.959l4.005 5.741q.55.79.381 1.744a2.25 2.25 0 0 1-.96 1.505l-5.74 4.005 1.335 1.914q.55.789.38 1.743a2.25 2.25 0 0 1-.96 1.505l-5.74 4.005a2.25 2.25 0 0 1-1.744.381 2.25 2.25 0 0 1-1.505-.959l-4.005-5.741 3.828-2.67-1.335-1.914-3.828 2.67zm1.914-1.335 1.335 1.914 1.913-1.335-1.335-1.914zm3.827-2.67 1.335 1.914 1.914-1.336-1.335-1.913zm3.828-2.67 1.334 1.913 1.914-1.335-1.335-1.913zm-1.158 6.497 1.335 1.914 1.914-1.335-1.335-1.914zm3.828-2.67 1.334 1.914 1.914-1.335-1.335-1.914zm3.827-2.67 1.335 1.914 1.914-1.335-1.336-1.914zm-4.985 9.168 1.335 1.913 1.914-1.335-1.335-1.913zm3.828-2.67 1.335 1.913 1.913-1.335-1.335-1.913zm3.827-2.671 1.335 1.914 1.914-1.335-1.335-1.914zm-8.812 11.838 1.335 1.914 1.913-1.335-1.335-1.914zm3.827-2.67 1.335 1.914 1.914-1.335-1.335-1.914z"/></g><mask id="f" width="40" height="40" x="77" y="205" maskUnits="userSpaceOnUse" style="mask-type:alpha"><path fill="#d9d9d9" d="m94.381 205 21.952 17.381-17.381 21.952L77 226.952z"/></mask><g mask="url(#f)"><path fill="#ee9f0a" fill-opacity=".3" d="m80.278 226.571 1.448-1.829q.869.688 1.654.566.785-.123 2.135.946t1.398 1.851q.05.784.919 1.471.868.688 1.642.557.774-.132 2.123.937 1.303 1.032 1.41 1.86t.93 1.48q.87.689 1.643.557t2.122.937 1.4 1.851.917 1.472l-1.448 1.829q-1.326-1.05-1.399-1.852-.072-.8-.918-1.471-.846-.67-1.643-.556-.795.113-2.123-.937-1.326-1.05-1.41-1.861t-.93-1.48q-.868-.688-1.642-.557-.774.132-2.123-.936-1.35-1.07-1.398-1.852-.05-.783-.919-1.471-.846-.67-1.643-.557-.796.114-2.145-.955m9.364.719q-1.303-1.032-1.398-1.852-.096-.82-.919-1.471-.8-.634-1.643-.557-.841.078-2.145-.955l1.448-1.829q.87.688 1.643.557.773-.132 2.123.936.137.11.265.229t.224.234l1.666-3.89-2.561.651-.535-2.284 14.064-3.15 7.355 12.371-2.021 1.19-1.306-2.298-3.597 8.349q.175.436.357.841t.616.749l-1.448 1.829q-1.285-1.055-1.39-1.863-.103-.808-.927-1.46-.87-.688-1.643-.556-.773.13-2.123-.937-1.302-1.032-1.41-1.861-.105-.828-.93-1.48-.868-.688-1.642-.557-.774.132-2.123-.936m1.449-1.83q.686.543 1.316.522.631-.021 1.553.411l1.617-3.779 4.286 1.868-2.558 5.862q.745.515 1.456.464t1.839.731l3.846-8.897-3.716-6.067-6.994 1.456-3.02 7.058q.073.095.166.188t.209.183"/></g><mask id="g" width="41" height="40" x="224" y="90" maskUnits="userSpaceOnUse" style="mask-type:alpha"><path fill="#d9d9d9" d="m242.381 90 21.952 17.381-17.381 21.952L225 111.952z"/></mask><g mask="url(#g)"><path fill="#ee9f0a" fill-opacity=".3" d="m228.278 111.571 1.448-1.829q.869.688 1.654.566.786-.123 2.134.946 1.35 1.068 1.399 1.851.05.784.918 1.471.87.688 1.643.557.774-.132 2.123.937 1.304 1.032 1.41 1.86t.93 1.48q.869.689 1.643.557.773-.132 2.122.937 1.35 1.068 1.399 1.851.05.783.918 1.472l-1.448 1.829q-1.326-1.05-1.399-1.852-.072-.8-.918-1.471-.846-.67-1.643-.556-.796.113-2.123-.937-1.326-1.05-1.41-1.861t-.929-1.48q-.87-.688-1.643-.557-.774.132-2.123-.936-1.349-1.07-1.399-1.852-.05-.783-.918-1.471-.846-.67-1.643-.557-.797.114-2.145-.955m9.364.719q-1.303-1.032-1.399-1.852-.095-.82-.918-1.471-.8-.634-1.643-.557-.842.078-2.145-.955l1.448-1.829q.869.688 1.643.557.774-.132 2.123.936.136.11.265.229.128.12.224.234l1.666-3.89-2.561.651-.535-2.284 14.064-3.15 7.355 12.371-2.021 1.19-1.306-2.298-3.597 8.349q.175.436.357.841t.616.749l-1.448 1.829q-1.285-1.054-1.39-1.863-.103-.808-.927-1.46-.869-.688-1.643-.556-.774.13-2.123-.937-1.303-1.032-1.41-1.861t-.929-1.48q-.87-.688-1.643-.557-.774.132-2.123-.936m1.448-1.83q.687.543 1.317.522.631-.021 1.553.411l1.617-3.779 4.286 1.868-2.558 5.862q.745.516 1.456.464.71-.05 1.839.731l3.846-8.897-3.716-6.067-6.994 1.456-3.021 7.058a2 2 0 0 0 .375.371"/></g><mask id="h" width="40" height="40" x="88" y="519" maskUnits="userSpaceOnUse" style="mask-type:alpha"><path fill="#d9d9d9" d="m105.381 519 21.952 17.381-17.381 21.952L88 540.952z"/></mask><g mask="url(#h)"><path fill="#ee9f0a" fill-opacity=".3" d="m91.278 540.571 1.448-1.829q.869.688 1.654.566.785-.123 2.135.946t1.398 1.851q.05.784.919 1.471.868.688 1.642.557.774-.132 2.123.937 1.303 1.032 1.41 1.86t.93 1.48q.869.689 1.643.557.773-.131 2.122.937 1.35 1.068 1.399 1.851.05.783.918 1.472l-1.448 1.829q-1.326-1.05-1.399-1.852-.072-.8-.918-1.471-.846-.67-1.643-.556-.796.113-2.122-.937-1.327-1.05-1.411-1.861-.083-.81-.929-1.48-.87-.688-1.643-.557-.774.132-2.123-.936-1.35-1.07-1.398-1.852-.05-.783-.919-1.471-.846-.67-1.643-.557-.796.114-2.145-.955m9.364.719q-1.304-1.033-1.398-1.852-.096-.82-.919-1.471-.8-.634-1.643-.557-.841.077-2.145-.955l1.448-1.829q.87.688 1.643.557.773-.132 2.123.936.137.11.265.229t.224.234l1.666-3.89-2.561.651-.535-2.284 14.064-3.15 7.355 12.371-2.021 1.19-1.306-2.298-3.597 8.349q.175.436.357.841t.616.749l-1.448 1.829q-1.285-1.054-1.39-1.863-.103-.808-.927-1.46-.869-.688-1.643-.556-.773.13-2.122-.937-1.303-1.032-1.411-1.861-.107-.829-.929-1.48-.87-.688-1.643-.557-.774.132-2.123-.936m1.449-1.83q.686.543 1.316.522.632-.021 1.553.411l1.617-3.779 4.286 1.868-2.557 5.862q.744.516 1.455.464.711-.05 1.839.731l3.846-8.897-3.716-6.067-6.994 1.456-3.021 7.058a2 2 0 0 0 .376.371"/></g><mask id="i" width="40" height="40" x="316" y="0" maskUnits="userSpaceOnUse" style="mask-type:alpha"><path fill="#d9d9d9" d="m333.381 0 21.952 17.381-17.381 21.952L316 21.952z"/></mask><g mask="url(#i)"><path fill="#ee9f0a" fill-opacity=".3" d="m319.278 21.571 1.448-1.83q.869.69 1.654.567.786-.123 2.135.945 1.349 1.07 1.398 1.852.05.783.919 1.471.868.688 1.642.557.774-.132 2.123.937 1.303 1.032 1.41 1.86t.93 1.48q.869.689 1.643.557.773-.131 2.122.937 1.35 1.068 1.399 1.851.05.783.918 1.471l-1.448 1.83q-1.326-1.05-1.399-1.852-.072-.8-.918-1.471-.846-.67-1.643-.557-.796.114-2.122-.936-1.327-1.05-1.411-1.86-.083-.812-.929-1.481-.87-.688-1.643-.557-.774.132-2.123-.937t-1.398-1.851q-.05-.784-.919-1.471-.846-.67-1.643-.557t-2.145-.955m9.364.718q-1.303-1.032-1.398-1.851-.096-.82-.919-1.471-.8-.634-1.643-.557-.841.078-2.145-.955l1.448-1.83q.87.69 1.643.558.774-.132 2.123.936.137.11.265.229t.224.233l1.666-3.889-2.561.65-.535-2.283 14.064-3.15 7.355 12.371-2.021 1.19-1.306-2.298-3.597 8.349q.175.436.357.84.182.405.617.75l-1.449 1.829q-1.285-1.056-1.39-1.863-.103-.808-.927-1.46-.869-.688-1.643-.557-.773.132-2.122-.936-1.303-1.032-1.411-1.86-.107-.83-.929-1.481-.87-.688-1.643-.557-.774.132-2.123-.937m1.449-1.829q.686.543 1.316.522.632-.021 1.553.411l1.617-3.78 4.286 1.87-2.557 5.86q.744.517 1.455.465.711-.05 1.839.731l3.846-8.897-3.716-6.067-6.994 1.456-3.021 7.057q.074.096.167.189t.209.183"/></g><mask id="j" width="40" height="40" x="310" y="686" maskUnits="userSpaceOnUse" style="mask-type:alpha"><path fill="#d9d9d9" d="m327.381 686 21.952 17.381-17.381 21.952L310 707.952z"/></mask><g mask="url(#j)"><path fill="#ee9f0a" fill-opacity=".3" d="m313.278 707.571 1.448-1.829q.869.688 1.654.566.786-.123 2.135.946t1.398 1.851q.05.784.919 1.471.868.688 1.642.557.774-.132 2.123.937 1.303 1.032 1.41 1.86t.93 1.48q.869.689 1.643.557.773-.131 2.122.937 1.35 1.068 1.399 1.851.05.783.918 1.472l-1.448 1.829q-1.326-1.05-1.399-1.852-.072-.8-.918-1.471-.846-.67-1.643-.556-.796.113-2.122-.937-1.327-1.05-1.411-1.861-.083-.81-.929-1.48-.87-.688-1.643-.557-.774.132-2.123-.936-1.349-1.07-1.398-1.852-.05-.783-.919-1.471-.846-.67-1.643-.557-.797.114-2.145-.955m9.364.719q-1.303-1.033-1.398-1.852-.096-.82-.919-1.471-.8-.634-1.643-.557-.841.077-2.145-.955l1.448-1.829q.87.688 1.643.557.774-.132 2.123.936.137.11.265.229t.224.234l1.666-3.89-2.561.651-.535-2.284 14.064-3.15 7.355 12.371-2.021 1.19-1.306-2.298-3.597 8.349q.175.436.357.841t.617.749l-1.449 1.829q-1.285-1.054-1.39-1.863-.103-.808-.927-1.46-.869-.688-1.643-.556-.773.13-2.122-.937-1.303-1.032-1.411-1.861-.107-.829-.929-1.48-.87-.688-1.643-.557-.774.132-2.123-.936m1.449-1.83q.686.543 1.316.522.632-.021 1.553.411l1.617-3.779 4.286 1.868-2.557 5.862q.744.516 1.455.464.711-.05 1.839.731l3.846-8.897-3.716-6.067-6.994 1.456-3.021 7.058a2 2 0 0 0 .376.371"/></g><mask id="k" width="38" height="38" x="215" y="584" maskUnits="userSpaceOnUse" style="mask-type:alpha"><path fill="#d9d9d9" d="m227.822 584 24.892 12.822-12.823 24.892L215 608.892z"/></mask><g mask="url(#k)"><path fill="#b52600" fill-opacity=".3" d="M219.429 607.236a1.128 1.128 0 0 1-.614-.973q-.01-.3.117-.579t.417-.458l18.142-11.652q.288-.18.602-.182.313-.003.572.131.26.134.439.39.18.256.202.596l1.045 21.536q.022.34-.131.605a1.3 1.3 0 0 1-.403.432 1.14 1.14 0 0 1-1.149.065zm2.858-1.153 15.661 8.068-.885-17.517zm9.257 3.079a1.13 1.13 0 0 0 .679-.585q.227-.44.082-.893a1.13 1.13 0 0 0-.585-.678 1.13 1.13 0 0 0-.893-.083 1.14 1.14 0 0 0-.679.585 1.13 1.13 0 0 0-.082.893q.144.452.585.679t.893.082m1.603-3.111q.451-.145.679-.585l1.602-3.112q.228-.44.083-.892a1.13 1.13 0 0 0-.586-.679 1.13 1.13 0 0 0-.892-.083 1.13 1.13 0 0 0-.679.586l-1.603 3.111a1.13 1.13 0 0 0-.082.893q.144.452.585.678.441.228.893.083"/></g><mask id="l" width="39" height="38" x="129" y="668" maskUnits="userSpaceOnUse" style="mask-type:alpha"><path fill="#d9d9d9" d="m142.822 668 24.892 12.822-12.823 24.892L130 692.892z"/></mask><g mask="url(#l)"><path fill="#b52600" fill-opacity=".3" d="M134.429 691.236a1.139 1.139 0 0 1-.615-.973q-.01-.3.118-.579t.417-.458l18.142-11.652q.288-.18.602-.182.313-.003.572.131.26.134.439.39.18.256.202.596l1.045 21.536q.022.34-.131.605a1.3 1.3 0 0 1-.403.432 1.14 1.14 0 0 1-1.149.065zm2.858-1.153 15.66 8.068-.885-17.517zm9.257 3.079a1.13 1.13 0 0 0 .679-.585q.227-.44.082-.893a1.13 1.13 0 0 0-.585-.678 1.13 1.13 0 0 0-.893-.083 1.14 1.14 0 0 0-.679.585 1.13 1.13 0 0 0-.082.893q.144.452.585.679t.893.082m1.603-3.111q.451-.145.678-.585l1.603-3.112q.228-.44.083-.892a1.13 1.13 0 0 0-.586-.679 1.13 1.13 0 0 0-.892-.083 1.13 1.13 0 0 0-.679.586l-1.603 3.111a1.13 1.13 0 0 0-.082.893q.144.452.585.678.44.228.893.083"/></g><mask id="m" width="38" height="38" x="8" y="426" maskUnits="userSpaceOnUse" style="mask-type:alpha"><path fill="#d9d9d9" d="m20.822 426 24.892 12.822-12.823 24.892L8 450.89z"/></mask><g mask="url(#m)"><path fill="#b52600" fill-opacity=".3" d="M12.429 449.236a1.135 1.135 0 0 1-.614-.973q-.01-.3.117-.579a1.05 1.05 0 0 1 .417-.458l18.142-11.652q.288-.18.602-.182t.572.131q.26.134.44.39.179.256.2.596l1.046 21.536q.022.34-.131.605a1.3 1.3 0 0 1-.403.432 1.14 1.14 0 0 1-1.149.065zm2.858-1.153 15.66 8.068-.884-17.517zm9.257 3.079q.451-.144.679-.585a1.13 1.13 0 0 0 .082-.893 1.13 1.13 0 0 0-.585-.678 1.13 1.13 0 0 0-.893-.083 1.13 1.13 0 0 0-.679.585 1.13 1.13 0 0 0-.082.893q.145.452.585.679.441.227.893.082m1.603-3.111a1.13 1.13 0 0 0 .679-.585l1.602-3.112q.228-.44.083-.892a1.13 1.13 0 0 0-.585-.679 1.13 1.13 0 0 0-.893-.083 1.13 1.13 0 0 0-.679.586l-1.603 3.111a1.13 1.13 0 0 0-.082.893q.144.452.585.678.44.228.893.083"/></g><mask id="n" width="39" height="38" x="308" y="282" maskUnits="userSpaceOnUse" style="mask-type:alpha"><path fill="#d9d9d9" d="m321.822 282 24.892 12.822-12.823 24.892L309 306.892z"/></mask><g mask="url(#n)"><path fill="#b52600" fill-opacity=".3" d="M313.429 305.236a1.139 1.139 0 0 1-.615-.973q-.01-.3.118-.579.127-.278.417-.458l18.142-11.652q.288-.18.602-.182.313-.003.572.131.26.134.439.39.18.256.202.596l1.045 21.536q.022.34-.131.605a1.3 1.3 0 0 1-.403.432 1.14 1.14 0 0 1-1.149.065zm2.858-1.153 15.66 8.068-.885-17.517zm9.257 3.079a1.13 1.13 0 0 0 .679-.585q.227-.44.082-.893a1.13 1.13 0 0 0-.585-.678 1.13 1.13 0 0 0-.893-.083 1.14 1.14 0 0 0-.679.585 1.13 1.13 0 0 0-.082.893q.144.452.585.679t.893.082m1.603-3.111q.451-.145.678-.585l1.603-3.112q.227-.44.083-.892a1.13 1.13 0 0 0-.586-.679 1.13 1.13 0 0 0-.892-.083 1.13 1.13 0 0 0-.679.586l-1.603 3.111a1.13 1.13 0 0 0-.082.893q.144.451.585.678t.893.083"/></g><mask id="o" width="39" height="38" x="0" y="65" maskUnits="userSpaceOnUse" style="mask-type:alpha"><path fill="#d9d9d9" d="m13.822 65 24.892 12.822-12.823 24.892L1 89.89z"/></mask><g mask="url(#o)"><path fill="#b52600" fill-opacity=".3" d="M5.429 88.236a1.135 1.135 0 0 1-.614-.973 1.3 1.3 0 0 1 .117-.579q.127-.278.417-.458L23.49 74.574q.288-.18.602-.182t.572.13q.26.135.439.39.18.257.202.597l1.045 21.536q.021.34-.131.605a1.3 1.3 0 0 1-.403.432 1.14 1.14 0 0 1-1.149.065zm2.858-1.153 15.66 8.068-.885-17.517zm9.257 3.08q.451-.145.679-.586.226-.44.082-.892a1.13 1.13 0 0 0-.585-.68 1.13 1.13 0 0 0-.893-.082 1.13 1.13 0 0 0-.679.585 1.13 1.13 0 0 0-.082.893q.144.452.585.679t.893.082m1.603-3.112q.45-.145.679-.585l1.602-3.112q.228-.44.083-.892a1.13 1.13 0 0 0-.586-.68 1.13 1.13 0 0 0-.892-.082 1.13 1.13 0 0 0-.679.586l-1.603 3.111a1.13 1.13 0 0 0-.082.893q.144.45.585.678t.893.083"/></g><mask id="p" width="38" height="38" x="317" y="464" maskUnits="userSpaceOnUse" style="mask-type:alpha"><path fill="#d9d9d9" d="m329.822 464 24.892 12.822-12.823 24.892L317 488.892z"/></mask><g mask="url(#p)"><path fill="#b52600" fill-opacity=".3" d="M321.429 487.236a1.128 1.128 0 0 1-.614-.973q-.01-.3.117-.579t.417-.458l18.142-11.652q.288-.18.602-.182.313-.003.572.131.26.134.439.39.18.256.202.596l1.045 21.536q.022.34-.131.605a1.3 1.3 0 0 1-.403.432 1.14 1.14 0 0 1-1.149.065zm2.858-1.153 15.661 8.068-.885-17.517zm9.257 3.079a1.13 1.13 0 0 0 .679-.585q.227-.44.082-.893a1.13 1.13 0 0 0-.585-.678 1.13 1.13 0 0 0-.893-.083 1.14 1.14 0 0 0-.679.585 1.13 1.13 0 0 0-.082.893q.144.452.585.679t.893.082m1.603-3.111q.451-.145.679-.585l1.602-3.112q.227-.44.083-.892a1.13 1.13 0 0 0-.586-.679 1.13 1.13 0 0 0-.892-.083 1.13 1.13 0 0 0-.679.586l-1.603 3.111a1.13 1.13 0 0 0-.082.893q.144.452.585.678.441.228.893.083"/></g><mask id="q" width="38" height="37" x="176" y="483" maskUnits="userSpaceOnUse" style="mask-type:alpha"><path fill="#d9d9d9" d="m187.255 483 26.055 10.255-10.255 26.054L177 509.055z"/></mask><g mask="url(#q)"><path fill="#4bc57c" fill-opacity=".3" d="m185.846 502.506 2.137-5.428q.181-.46.616-.65t.897-.008q.46.181.65.616t.008.897l-2.137 5.428a1.13 1.13 0 0 1-.616.65q-.435.19-.896.008a1.13 1.13 0 0 1-.651-.616 1.13 1.13 0 0 1-.008-.897m6.514 2.564 2.136-5.428q.182-.462.617-.651.435-.19.896-.007.462.181.651.616.19.435.008.896l-2.137 5.428a1.13 1.13 0 0 1-.616.651q-.435.19-.897.008a1.13 1.13 0 0 1-.65-.617 1.13 1.13 0 0 1-.008-.896m-10.821 2.01a1.13 1.13 0 0 1-.651-.617 1.13 1.13 0 0 1-.008-.896q.182-.462.617-.651a1.13 1.13 0 0 1 .896-.008l19.541 7.692q.462.181.651.616t.007.896a1.13 1.13 0 0 1-.616.651 1.13 1.13 0 0 1-.896.008zm17.335.554 2.136-5.428a1.13 1.13 0 0 1 .616-.651q.435-.19.897-.008.46.182.65.617t.008.896l-2.136 5.428a1.13 1.13 0 0 1-.617.651q-.435.19-.896.007a1.13 1.13 0 0 1-.651-.616 1.13 1.13 0 0 1-.007-.896m7.76-6.976-19.649-7.734a1.01 1.01 0 0 1-.58-.557 1.01 1.01 0 0 1-.013-.805l.235-.597a.96.96 0 0 1 .352-.457 1.2 1.2 0 0 1 .533-.197l11.173-.994q.547-.036 1.063.167t.891.602l7.456 8.294q.245.254.287.584.043.33-.075.628l-.16.408a1.13 1.13 0 0 1-.616.65q-.435.19-.897.008m-14.941-8.388 12.05 4.743-4.85-5.357z"/></g><mask id="r" width="38" height="37" x="242" y="188" maskUnits="userSpaceOnUse" style="mask-type:alpha"><path fill="#d9d9d9" d="m253.255 188 26.055 10.255-10.255 26.054L243 214.055z"/></mask><g mask="url(#r)"><path fill="#4bc57c" fill-opacity=".3" d="m251.846 207.506 2.137-5.428q.181-.46.616-.65t.897-.008q.46.181.65.616t.008.897l-2.137 5.428a1.13 1.13 0 0 1-.616.65q-.435.19-.896.008a1.13 1.13 0 0 1-.651-.616 1.13 1.13 0 0 1-.008-.897m6.514 2.564 2.136-5.428q.182-.462.617-.651.435-.19.896-.007.462.181.651.616.19.435.008.896l-2.137 5.428a1.13 1.13 0 0 1-.616.651q-.435.19-.897.008a1.13 1.13 0 0 1-.65-.617 1.13 1.13 0 0 1-.008-.896m-10.821 2.01a1.13 1.13 0 0 1-.651-.617 1.13 1.13 0 0 1-.008-.896q.182-.462.617-.651a1.13 1.13 0 0 1 .896-.008l19.541 7.692q.462.181.651.616t.007.896a1.13 1.13 0 0 1-.616.651 1.13 1.13 0 0 1-.896.008zm17.335.554 2.136-5.428a1.13 1.13 0 0 1 .616-.651q.435-.19.897-.008.46.182.65.617t.008.896l-2.136 5.428a1.13 1.13 0 0 1-.617.651q-.435.19-.896.007a1.13 1.13 0 0 1-.651-.616 1.13 1.13 0 0 1-.007-.896m7.76-6.976-19.649-7.734a1.01 1.01 0 0 1-.58-.557 1.01 1.01 0 0 1-.013-.805l.235-.597a.96.96 0 0 1 .352-.457 1.2 1.2 0 0 1 .533-.197l11.173-.994q.547-.036 1.063.167t.891.602l7.456 8.294q.245.254.287.584.043.33-.075.628l-.16.408a1.13 1.13 0 0 1-.616.65q-.435.19-.897.008m-14.941-8.388 12.05 4.743-4.85-5.357z"/></g><mask id="s" width="37" height="37" x="0" y="180" maskUnits="userSpaceOnUse" style="mask-type:alpha"><path fill="#d9d9d9" d="m10.255 180 26.055 10.255-10.255 26.054L0 206.055z"/></mask><g mask="url(#s)"><path fill="#4bc57c" fill-opacity=".3" d="m8.846 199.506 2.137-5.428q.18-.46.616-.65t.897-.008.65.616.008.897l-2.136 5.428a1.13 1.13 0 0 1-.617.65q-.435.19-.896.008a1.13 1.13 0 0 1-.651-.616 1.13 1.13 0 0 1-.008-.897m6.514 2.564 2.136-5.428q.183-.462.617-.651.435-.19.896-.007.462.181.65.616.19.435.009.896l-2.137 5.428a1.13 1.13 0 0 1-.616.651 1.13 1.13 0 0 1-.897.008 1.13 1.13 0 0 1-.65-.617 1.13 1.13 0 0 1-.008-.896m-10.821 2.01a1.13 1.13 0 0 1-.65-.617 1.13 1.13 0 0 1-.009-.896q.182-.462.617-.651a1.13 1.13 0 0 1 .896-.008l19.541 7.692q.462.181.65.616.19.435.009.896a1.13 1.13 0 0 1-.617.651 1.13 1.13 0 0 1-.896.008zm17.335.554 2.136-5.428q.182-.462.617-.651a1.13 1.13 0 0 1 .896-.008q.462.182.65.617.19.435.008.896l-2.136 5.428a1.13 1.13 0 0 1-.617.651q-.434.19-.896.007a1.13 1.13 0 0 1-.65-.616 1.13 1.13 0 0 1-.008-.896m7.76-6.976-19.65-7.734a1.01 1.01 0 0 1-.58-.557 1.01 1.01 0 0 1-.012-.805l.235-.597a.96.96 0 0 1 .353-.457q.234-.158.532-.197l11.174-.994q.546-.036 1.062.167t.892.602l7.455 8.294q.245.254.288.584t-.076.628l-.16.408a1.13 1.13 0 0 1-.616.65 1.13 1.13 0 0 1-.897.008m-14.94-8.388 12.05 4.743-4.85-5.357z"/></g><mask id="t" width="37" height="37" x="321" y="120" maskUnits="userSpaceOnUse" style="mask-type:alpha"><path fill="#d9d9d9" d="m331.255 120 26.055 10.255-10.255 26.054L321 146.055z"/></mask><g mask="url(#t)"><path fill="#4bc57c" fill-opacity=".3" d="m329.847 139.506 2.136-5.428a1.13 1.13 0 0 1 .617-.65q.434-.19.896-.008.46.181.651.616.189.435.007.897l-2.136 5.428a1.13 1.13 0 0 1-.617.65q-.435.19-.896.008a1.13 1.13 0 0 1-.651-.616 1.13 1.13 0 0 1-.007-.897m6.513 2.564 2.137-5.428q.181-.462.616-.651.435-.19.897-.007.46.181.65.616t.008.896l-2.137 5.428a1.13 1.13 0 0 1-.616.651 1.13 1.13 0 0 1-.896.008 1.13 1.13 0 0 1-.651-.617 1.13 1.13 0 0 1-.008-.896m-10.821 2.01a1.13 1.13 0 0 1-.651-.617 1.13 1.13 0 0 1-.007-.896q.181-.462.616-.651.435-.19.897-.008l19.54 7.692q.462.181.651.616.19.435.008.896a1.13 1.13 0 0 1-.617.651 1.13 1.13 0 0 1-.896.008zm17.335.554 2.136-5.428q.182-.462.617-.651a1.13 1.13 0 0 1 .896-.008q.462.182.651.617.19.435.008.896l-2.137 5.428a1.13 1.13 0 0 1-.616.651q-.435.19-.897.007a1.13 1.13 0 0 1-.65-.616 1.13 1.13 0 0 1-.008-.896m7.761-6.976-19.65-7.734a1.02 1.02 0 0 1-.58-.557 1.01 1.01 0 0 1-.012-.805l.235-.597a.95.95 0 0 1 .352-.457q.235-.158.532-.197l11.174-.994q.546-.036 1.062.167t.892.602l7.455 8.294q.245.254.288.584t-.075.628l-.161.408a1.13 1.13 0 0 1-.616.65 1.13 1.13 0 0 1-.896.008m-14.941-8.388 12.05 4.743-4.85-5.357z"/></g><mask id="u" width="38" height="37" x="335" y="558" maskUnits="userSpaceOnUse" style="mask-type:alpha"><path fill="#d9d9d9" d="m346.255 558 26.055 10.255-10.255 26.054L336 584.055z"/></mask><g mask="url(#u)"><path fill="#4bc57c" fill-opacity=".3" d="m344.846 577.506 2.137-5.428q.181-.46.616-.65t.897-.008q.46.181.65.616t.008.897l-2.137 5.428a1.13 1.13 0 0 1-.616.65q-.435.19-.896.008a1.13 1.13 0 0 1-.651-.616 1.13 1.13 0 0 1-.008-.897m6.514 2.564 2.136-5.428q.182-.462.617-.651.435-.19.896-.007.462.181.651.616.19.435.008.896l-2.137 5.428a1.13 1.13 0 0 1-.616.651q-.435.19-.897.008a1.13 1.13 0 0 1-.65-.617 1.13 1.13 0 0 1-.008-.896m-10.821 2.01a1.13 1.13 0 0 1-.651-.617 1.13 1.13 0 0 1-.008-.896q.182-.462.617-.651a1.13 1.13 0 0 1 .896-.008l19.541 7.692q.462.181.651.616t.007.896a1.13 1.13 0 0 1-.616.651 1.13 1.13 0 0 1-.896.008zm17.335.554 2.136-5.428a1.13 1.13 0 0 1 .616-.651q.435-.19.897-.008.46.182.65.617t.008.896l-2.136 5.428a1.13 1.13 0 0 1-.617.651q-.435.19-.896.007a1.13 1.13 0 0 1-.651-.616 1.13 1.13 0 0 1-.007-.896m7.76-6.976-19.649-7.734a1.01 1.01 0 0 1-.58-.557 1.01 1.01 0 0 1-.013-.805l.235-.597a.96.96 0 0 1 .352-.457 1.2 1.2 0 0 1 .533-.197l11.173-.994q.547-.036 1.063.167t.891.602l7.456 8.294q.245.254.287.584.043.33-.075.628l-.16.408a1.13 1.13 0 0 1-.616.65q-.435.19-.897.008m-14.941-8.388 12.05 4.743-4.85-5.357z"/></g><mask id="v" width="38" height="37" x="192" y="2" maskUnits="userSpaceOnUse" style="mask-type:alpha"><path fill="#d9d9d9" d="m203.255 2 26.055 10.255-10.255 26.054L193 28.055z"/></mask><g mask="url(#v)"><path fill="#4bc57c" fill-opacity=".3" d="m201.846 21.506 2.137-5.428q.181-.46.616-.65a1.13 1.13 0 0 1 .897-.008q.46.18.65.616t.008.897l-2.137 5.428a1.13 1.13 0 0 1-.616.65q-.435.19-.896.008a1.13 1.13 0 0 1-.651-.616 1.13 1.13 0 0 1-.008-.897m6.514 2.564 2.136-5.428a1.13 1.13 0 0 1 .617-.65q.435-.19.896-.009.462.183.651.617.19.435.008.896l-2.137 5.429a1.13 1.13 0 0 1-.616.65 1.13 1.13 0 0 1-.897.008 1.13 1.13 0 0 1-.65-.617 1.13 1.13 0 0 1-.008-.896m-10.821 2.01a1.13 1.13 0 0 1-.651-.617 1.13 1.13 0 0 1-.008-.896 1.13 1.13 0 0 1 .617-.65q.435-.19.896-.009l19.541 7.691q.462.183.651.617.189.435.007.896a1.13 1.13 0 0 1-.616.651q-.435.19-.896.008zm17.335.554 2.136-5.428a1.13 1.13 0 0 1 .616-.651 1.13 1.13 0 0 1 .897-.008q.46.182.65.617.19.434.008.896l-2.136 5.428a1.13 1.13 0 0 1-.617.65q-.435.19-.896.008a1.13 1.13 0 0 1-.651-.616 1.13 1.13 0 0 1-.007-.896m7.76-6.976-19.649-7.734a1 1 0 0 1-.58-.557 1.01 1.01 0 0 1-.013-.805l.235-.597a.96.96 0 0 1 .352-.457q.235-.158.533-.197l11.173-.994q.547-.036 1.063.167t.891.602l7.456 8.294q.245.255.287.584.043.33-.075.628l-.16.408a1.13 1.13 0 0 1-.616.65 1.13 1.13 0 0 1-.897.008m-14.941-8.388 12.05 4.743-4.85-5.357z"/></g></svg>